<svg width="39" height="33" viewBox="0 0 39 33" fill="none" xmlns="http://www.w3.org/2000/svg">
<path fill-rule="evenodd" clip-rule="evenodd" d="M38.9395 17.6229C39.0489 17.3904 39.0081 17.1212 38.8314 16.9024L24 0V4.255C24 4.87816 24.2195 5.49413 24.6163 5.98796L31.9883 14.4032H28.7856C28.3273 14.4032 27.955 14.7795 27.955 15.2413V31.2188C27.955 31.6499 28.3027 32 28.7293 32H31.6128V18.0168H38.2805C38.5731 18.0168 38.8256 17.8659 38.9395 17.6229Z" fill="#78BE21"/>
<path fill-rule="evenodd" clip-rule="evenodd" d="M5.84504 14.7171L12.6892 7.82776V18.3079H17.1333L10.3105 25.1722V14.7171H5.84504ZM8.97142 31.2174L22.1838 17.9298L22.2284 17.8771C23.1067 16.7632 23.0037 15.5672 22.9887 15.4336L22.9102 14.7223H16.1954V1L15.3849 1.02825C15.2116 1.03467 14.602 1.10657 14.0289 1.78261L0.816463 15.0702L0.771263 15.1229C-0.106384 16.2374 -0.0034269 17.454 0.0110122 17.5888L0.0882301 18.3021H6.8043V32L7.6154 31.9718C7.78867 31.966 8.39825 31.8934 8.97142 31.2174Z" fill="url(#paint0_linear)"/>
<defs>
<linearGradient id="paint0_linear" x1="2.02408" y1="-0.364052" x2="-1.63" y2="30.4426" gradientUnits="userSpaceOnUse">
<stop stop-color="#78BE21"/>
<stop offset="1" stop-color="#FFC72C"/>
</linearGradient>
</defs>
</svg>
