<?xml version="1.0" encoding="UTF-8"?>
<svg width="142px" height="33px" viewBox="0 0 142 33" version="1.1" xmlns="http://www.w3.org/2000/svg" xmlns:xlink="http://www.w3.org/1999/xlink">
    <title>logos/green</title>
    <defs>
        <linearGradient x1="54.8443061%" y1="0%" x2="50%" y2="100%" id="linearGradient-1">
            <stop stop-color="#78BE21" offset="0%"></stop>
            <stop stop-color="#FFC72C" offset="100%"></stop>
        </linearGradient>
    </defs>
    <g id="Symbols" stroke="none" stroke-width="1" fill="none" fill-rule="evenodd">
        <g id="components/Footer" transform="translate(-60.000000, -67.000000)">
            <g id="Group-16" transform="translate(60.000000, 67.000000)">
                <path d="M38.9395179,17.6228949 C39.0489294,17.3903529 39.0081428,17.1212313 38.8314013,16.9024067 L24,0 L24,4.25499602 C24,4.87815632 24.2194703,5.49413134 24.6163296,5.98795648 L31.9883304,14.4032334 L28.7856178,14.4032334 C28.3272551,14.4032334 27.9549972,14.7794811 27.9549972,15.2412991 L27.9549972,31.2187634 C27.9549972,31.6498806 28.3026537,32 28.7292936,32 L31.6128355,32 L31.6128355,18.0167793 L38.2804596,18.0167793 C38.5730867,18.0167793 38.8255746,17.8658883 38.9395179,17.6228949" id="Fill-1" fill="#78BE21"></path>
                <path d="M5.84504038,14.7171437 L12.6891785,7.82775546 L12.6891785,18.3078946 L17.1332854,18.3078946 L10.3104921,25.1722445 L10.3104921,14.7171437 L5.84504038,14.7171437 Z M8.97142156,31.2173922 L22.1838349,17.9297519 L22.2284078,17.8771072 C23.1066823,16.7632233 23.0037252,15.5671623 22.9886583,15.4336247 L22.9101849,14.7222797 L16.195371,14.7222797 L16.195371,1 L15.3848975,1.02824835 C15.2116282,1.03466843 14.6020466,1.10657333 14.0288767,1.7826078 L0.81646343,15.0702481 L0.771262738,15.1228928 C-0.106384026,16.2374187 -0.00342689523,17.4540239 0.0110122146,17.5888456 L0.088230063,18.3021166 L6.80429951,18.3021166 L6.80429951,32 L7.61540081,31.9717516 C7.78867013,31.9659736 8.39825168,31.8934267 8.97142156,31.2173922 L8.97142156,31.2173922 Z" id="Fill-4" fill="url(#linearGradient-1)"></path>
                <path d="M112.838983,7 L112.838983,32.7102825 L109.378154,32.7102825 L108.736603,31.0782293 L107.416032,31.803513 C106.059965,32.5650938 104.740709,33 103.313651,33 C98.7110445,33 95.5,29.3379445 95.5,23.8986471 C95.5,18.5682412 98.8891802,14.7240399 103.313651,14.7240399 C105.025332,14.7240399 106.595687,15.3767292 108.236376,16.3923903 L108.236376,7 L112.838983,7 Z M132.330275,14.8787879 C134.541925,14.8787879 136.540563,15.453971 137.896218,16.8922559 C138.966541,18.0072866 139.609524,19.5888765 139.609524,21.9622429 L139.609524,29.0810335 L142,29.5482471 L142,32.029583 C141.143347,32.4608067 139.680528,32.7847153 138.717369,32.7847153 C137.46822,32.7847153 136.504404,32.2095322 135.648408,31.2384609 L134.720093,31.7423186 C133.114609,32.6047661 131.616288,33 130.259975,33 C126.477685,33 123.872881,30.4479931 123.872881,27.1035553 C123.872881,23.9397211 126.227855,22.1421922 129.939141,22.1421922 L130.046305,22.1421922 C131.544626,22.1421922 133.578766,22.4294565 135.006083,22.8253448 L135.006083,21.6743242 C135.006083,20.7039072 134.791755,20.0927343 134.363757,19.6608562 C133.828596,19.121663 132.971943,18.9057239 131.794456,18.9057239 C130.616969,18.9057239 129.118648,19.2296325 127.548008,19.7688257 L126.085189,20.2720291 L124.657873,17.7553577 C126.977344,15.9571744 129.689312,14.8787879 132.330275,14.8787879 Z M57.4570868,14.8787879 C59.6693145,14.8787879 61.6672224,15.453971 63.0228282,16.8922559 C64.0937699,18.0072866 64.7360719,19.5888765 64.7360719,21.9622429 L64.7360719,29.0810335 L67.1271186,29.5482471 L67.1271186,32.029583 C66.2704967,32.4608067 64.8070736,32.7847153 63.8446066,32.7847153 C62.5948459,32.7847153 61.6317215,32.2095322 60.7757571,31.2384609 L59.8474761,31.7423186 C58.2420496,32.6047661 56.7437831,33 55.3875198,33 C51.6047091,33 49,30.4479931 49,27.1035553 C49,23.9397211 51.3548884,22.1421922 55.0660401,22.1421922 L55.1732,22.1421922 C56.6714666,22.1421922 58.7055327,22.4294565 60.1327976,22.8253448 L60.1327976,21.6743242 C60.1327976,20.7039072 59.9191352,20.0927343 59.4904955,19.6608562 C58.9553533,19.121663 58.0993889,18.9057239 56.9212872,18.9057239 C55.743843,18.9057239 54.2455765,19.2296325 52.6756508,19.7688257 L51.2128851,20.2720291 L49.7856202,17.7553577 C52.1043504,15.9571744 54.8162194,14.8787879 57.4570868,14.8787879 Z M78.5586346,14.8787879 C82.499152,14.8787879 85.2542373,17.3254501 85.2542373,21.5185472 L85.2542373,32.2121212 L80.7553783,32.2121212 L80.7553783,21.6934451 C80.7553783,20.8195917 80.5812579,20.2605545 80.1976791,19.8764151 C79.7093711,19.3517215 78.8374842,19.1424801 77.5820185,19.1424801 L77.5119849,19.1424801 C76.3265529,19.1424801 75.0363917,19.3517215 74.3392677,19.6315581 C74.0252728,19.7574846 73.9938733,19.940078 73.9907333,20.2043747 L73.9903844,32.2121212 L69.4915254,32.2121212 L69.4915254,15.1586245 L72.9090392,15.1586245 L73.4667383,16.6614742 L74.7922376,15.9275391 C75.8388874,15.3335224 77.1984397,14.8787879 78.5586346,14.8787879 Z M93.1355932,14.4580948 L93.1355932,32.2121212 L89.1949153,32.2121212 L89.1949153,14.4580948 L93.1355932,14.4580948 Z M121.508475,14.4580948 L121.508475,32.2121212 L117.567797,32.2121212 L117.567797,14.4580948 L121.508475,14.4580948 Z M59.7403162,25.5219654 L54.7452178,25.5219654 C53.7459351,25.5219654 53.3889546,25.989179 53.3889546,26.9236061 C53.3889546,28.2539215 54.3527364,29.2249929 56.2434843,29.2249929 C57.4925876,29.2249929 58.9915116,28.829759 59.6693145,28.5418402 C60.0262951,28.3978809 60.1327976,28.2905657 60.1327976,27.9306673 L60.1327976,25.8812095 C60.1327976,25.5939451 60.0617959,25.5219654 59.7403162,25.5219654 Z M134.613587,25.5219654 L129.618308,25.5219654 C128.618331,25.5219654 128.261995,25.989179 128.261995,26.9236061 C128.261995,28.2539215 129.225154,29.2249929 131.116628,29.2249929 C132.36512,29.2249929 133.864098,28.829759 134.541925,28.5418402 C134.898919,28.3978809 135.006083,28.2905657 135.006083,27.9306673 L135.006083,25.8812095 C135.006083,25.5939451 134.935078,25.5219654 134.613587,25.5219654 Z M104.312132,19.0757418 C101.636809,19.0757418 100.209094,20.308526 100.209094,23.8623499 C100.209094,27.5244054 101.672305,28.6852552 104.312132,28.6852552 C105.561054,28.6852552 107.023607,28.3585806 107.880105,27.9236744 C108.165385,27.7784857 108.236376,27.6339569 108.236376,27.2346879 L108.236376,20.5263091 C108.236376,20.1633373 108.236376,20.0181486 107.880105,19.8373226 C107.023607,19.4017565 105.668198,19.0757418 104.312132,19.0757418 Z M92.3105384,7 C92.9526854,7 93.1355932,7.25491535 93.1355932,7.90974984 L93.1355932,11.6202579 L89.1949153,11.6202579 L89.1949153,7 L92.3105384,7 Z M120.683983,7 C121.325567,7 121.508475,7.25491535 121.508475,7.90974984 L121.508475,11.6202579 L117.567797,11.6202579 L117.567797,7 L120.683983,7 Z" id="Combined-Shape" fill="#78BE21"></path>
            </g>
        </g>
    </g>
</svg>