<?xml version="1.0" encoding="UTF-8"?>
<svg width="622px" height="506px" viewBox="0 0 622 506" version="1.1" xmlns="http://www.w3.org/2000/svg" xmlns:xlink="http://www.w3.org/1999/xlink">
    <title>background/symbol</title>
    <defs>
        <linearGradient x1="37.2560934%" y1="28.1713279%" x2="90.2950058%" y2="76.6468145%" id="linearGradient-1">
            <stop stop-color="#78BE21" offset="0%"></stop>
            <stop stop-color="#FFC72C" offset="100%"></stop>
        </linearGradient>
    </defs>
    <g id="UI-Kit" stroke="none" stroke-width="1" fill="none" fill-rule="evenodd" opacity="0.05">
        <g id="colors-&amp;-backgrounds" transform="translate(-1387.000000, -455.000000)" fill="url(#linearGradient-1)">
            <g id="Group-10" transform="translate(1387.000000, 455.000000)">
                <path d="M378.702249,0 L619.265354,267.269305 C622.132076,270.72947 622.793627,274.984956 621.01899,278.662026 C619.170847,282.504358 615.07553,284.890322 610.329163,284.890322 L610.329163,284.890322 L502.181299,284.890322 L502.181299,506 L455.410681,506 C448.490646,506 442.85171,500.463737 442.85171,493.646696 L442.85171,493.646696 L442.85171,241.003041 C442.85171,233.700545 448.889677,227.751128 456.324252,227.751128 L456.324252,227.751128 L508.27177,227.751128 L388.699022,94.6845618 C382.262024,86.8759517 378.702249,77.1358468 378.702249,67.2821246 L378.702249,67.2821246 L378.702249,0 Z M263.739862,9.21675774 L263.739862,228.983945 L373.089878,228.983945 L374.36781,240.376386 C374.613172,242.515039 376.289818,261.670381 361.987212,279.509628 L361.987212,279.509628 L361.261347,280.352751 L146.098628,493.159033 C136.764619,503.985965 126.837649,505.147829 124.015977,505.240367 L124.015977,505.240367 L110.80728,505.692775 L110.80728,286.316303 L1.43681702,286.316303 L0.179332722,274.893016 C-0.0558066176,272.733799 -1.73245234,253.249434 12.5599301,235.399904 L12.5599301,235.399904 L13.2960185,234.556782 L228.458738,21.7504997 C237.792747,10.9235676 247.719717,9.77198503 250.541389,9.66916516 L250.541389,9.66916516 L263.739862,9.21675774 Z M206.647313,118.58895 L95.2903385,228.967487 L167.945095,228.967487 L167.945095,396.474196 L278.954781,286.49681 L206.647313,286.49681 L206.647313,118.58895 Z" id="Combined-Shape"></path>
            </g>
        </g>
    </g>
</svg>