<?xml version="1.0" encoding="UTF-8"?>
<svg width="180px" height="42px" viewBox="0 0 180 42" version="1.1" xmlns="http://www.w3.org/2000/svg" xmlns:xlink="http://www.w3.org/1999/xlink">
    <title>logos/white</title>
    <defs>
        <polygon id="path-1" points="0.0473333333 0.5207 19.3551853 0.5207 19.3551853 40.691434 0.0473333333 40.691434"></polygon>
        <polygon id="path-3" points="0 0.248408163 29.7053239 0.248408163 29.7053239 39.665551 0 39.665551"></polygon>
        <polygon id="path-5" points="0 42 180 42 180 1 0 1"></polygon>
    </defs>
    <g id="Symbols" stroke="none" stroke-width="1" fill="none" fill-rule="evenodd">
        <g id="components/navbar/negative" transform="translate(-61.000000, -49.000000)">
            <g id="Group-16" transform="translate(61.000000, 49.000000)">
                <g id="Group-3" transform="translate(30.000000, 0.000000)">
                    <mask id="mask-2" fill="white">
                        <use xlink:href="#path-1"></use>
                    </mask>
                    <g id="Clip-2"></g>
                    <path d="M19.2773333,22.643234 C19.4181667,22.351314 19.3656667,22.013474 19.1381667,21.738774 L0.0473333333,0.520454 L0.0473333333,5.861934 C0.0473333333,6.644214 0.329833333,7.417474 0.840666667,8.037394 L10.3298333,18.601454 L6.20733333,18.601454 C5.61733333,18.601454 5.13816667,19.073774 5.13816667,19.653514 L5.13816667,39.710714 C5.13816667,40.251914 5.58566667,40.691434 6.13483333,40.691434 L9.8465,40.691434 L9.8465,23.137694 L18.429,23.137694 C18.8056667,23.137694 19.1306667,22.948274 19.2773333,22.643234" id="Fill-1" fill="#FFFFFF" mask="url(#mask-2)"></path>
                </g>
                <g id="Group-6" transform="translate(0.000000, 1.000000)">
                    <mask id="mask-4" fill="white">
                        <use xlink:href="#path-3"></use>
                    </mask>
                    <g id="Clip-5"></g>
                    <path d="M7.54905405,17.6900408 L16.3885135,8.93004082 L16.3885135,22.2557551 L22.1282432,22.2557551 L13.3163514,30.9839184 L13.3163514,17.6900408 L7.54905405,17.6900408 Z M11.5868919,38.670449 L28.6512162,21.7749388 L28.7087838,21.708 C29.8431081,20.2916735 29.7101351,18.7708571 29.6906757,18.6010612 L29.5893243,17.6965714 L20.9168919,17.6965714 L20.9168919,0.248408163 L19.8701351,0.284326531 C19.6463514,0.292489796 18.8590541,0.383918367 18.1187838,1.2435102 L1.05445946,18.1390204 L0.996081081,18.2059592 C-0.137432432,19.623102 -0.00445945946,21.1700408 0.0141891892,21.3414694 L0.113918919,22.2484082 L8.78797297,22.2484082 L8.78797297,39.665551 L9.83554054,39.6296327 C10.0593243,39.6222857 10.8466216,39.5300408 11.5868919,38.670449 L11.5868919,38.670449 Z" id="Fill-4" fill="#FFFFFF" mask="url(#mask-4)"></path>
                </g>
                <path d="M76.1254851,32.964612 C76.1254851,32.6000072 76.0353969,32.5086484 75.6274979,32.5086484 L69.2896312,32.5086484 C68.0217242,32.5086484 67.5687811,33.1016502 67.5687811,34.2876539 C67.5687811,35.9761312 68.791644,37.2086448 71.1906575,37.2086448 C72.7755413,37.2086448 74.6774018,36.7070018 75.5374098,36.3415665 C75.9903529,36.1588488 76.1254851,36.0226411 76.1254851,35.565847 L76.1254851,32.964612 Z M76.1254851,27.6251038 C76.1254851,26.3934207 75.8543865,25.6177012 75.3105212,25.0695483 C74.6315236,24.3851876 73.5454611,24.1111111 72.0506655,24.1111111 C70.556704,24.1111111 68.6556777,24.5222258 66.663729,25.2065865 L64.8077467,25.8452678 L62.9968085,22.6510309 C65.9388532,20.3687213 69.3797193,19 72.7304972,19 C75.5374098,19 78.0723897,19.7300401 79.7924056,21.5555556 C81.1512349,22.9707868 81.9661988,24.9781894 81.9661988,27.9905391 L81.9661988,37.0259271 L85,37.618929 L85,40.7683169 C83.9131034,41.3156393 82.0562869,41.7267541 80.8350923,41.7267541 C79.2493744,41.7267541 78.0273456,40.996714 76.9412831,39.7642003 L75.7634643,40.4037121 C73.7264715,41.498357 71.8254452,42 70.1045951,42 C65.3048997,42 62,38.7609143 62,34.516051 C62,30.5004153 64.987923,28.2189362 69.696696,28.2189362 L69.8326624,28.2189362 C71.7336888,28.2189362 74.3145468,28.583541 76.1254851,29.0860145 L76.1254851,27.6251038 Z" id="Fill-7" fill="#FFFFFF"></path>
                <path d="M102.29177,27.6493726 C102.29177,26.540251 102.070843,25.8307037 101.584152,25.3431423 C100.964578,24.677185 99.8583133,24.4116093 98.2653569,24.4116093 L98.176497,24.4116093 C96.6724004,24.4116093 95.0354217,24.677185 94.1508988,25.0323622 C93.7082297,25.2099508 93.7082297,25.4763337 93.7082297,25.8751009 L93.7082297,41 L88,41 L88,19.3551772 L92.3362002,19.3551772 L93.0438185,21.2626403 L94.7256349,20.3311074 C96.053642,19.577163 97.7786655,19 99.5045041,19 C104.5043,19 108,22.105379 108,27.4273868 L108,41 L102.29177,41 L102.29177,27.6493726 Z" id="Fill-9" fill="#FFFFFF"></path>
                <mask id="mask-6" fill="white">
                    <use xlink:href="#path-5"></use>
                </mask>
                <g id="Clip-12"></g>
                <path d="M113,41 L118,41 L118,18.4660434 L113,18.4660434 L113,41 Z M113,9 L116.953156,9 C117.767923,9 118,9.3235464 118,10.1546825 L118,14.8641735 L113,14.8641735 L113,9 Z" id="Fill-11" fill="#FFFFFF" mask="url(#mask-6)"></path>
                <path d="M137.160133,26.1680077 C137.160133,25.7073127 137.160133,25.5230347 136.70809,25.2935249 C135.621351,24.7406909 133.901585,24.3269031 132.180984,24.3269031 C128.786489,24.3269031 126.974979,25.8915907 126.974979,30.4022134 C126.974979,35.0502069 128.831526,36.5235932 132.180984,36.5235932 C133.765638,36.5235932 135.621351,36.1089677 136.70809,35.5569713 C137.070058,35.3726934 137.160133,35.189253 137.160133,34.6824885 L137.160133,26.1680077 Z M137.160133,9 L143,9 L143,41.6322816 L138.608841,41.6322816 L137.794829,39.5608295 L136.119266,40.4813818 C134.398666,41.4480037 132.724771,42 130.914095,42 C125.074229,42 121,37.3520065 121,30.4482829 C121,23.6827677 125.30025,18.8035891 130.914095,18.8035891 C133.085905,18.8035891 135.078399,19.6320024 137.160133,20.9211107 L137.160133,9 Z" id="Fill-13" fill="#FFFFFF" mask="url(#mask-6)"></path>
                <path d="M149,41 L154,41 L154,18.4660434 L149,18.4660434 L149,41 Z M149,9 L152.95387,9 C153.767923,9 154,9.3235464 154,10.1546825 L154,14.8641735 L149,14.8641735 L149,9 Z" id="Fill-14" fill="#FFFFFF" mask="url(#mask-6)"></path>
                <path d="M171.125997,32.964612 C171.125997,32.6000072 171.035906,32.5086484 170.627992,32.5086484 L164.289896,32.5086484 C163.021108,32.5086484 162.568983,33.1016502 162.568983,34.2876539 C162.568983,35.9761312 163.791056,37.2086448 166.190991,37.2086448 C167.775098,37.2086448 169.677027,36.7070018 170.537067,36.3415665 C170.990026,36.1588488 171.125997,36.0226411 171.125997,35.565847 L171.125997,32.964612 Z M171.125997,27.6251038 C171.125997,26.3934207 170.854055,25.6177012 170.311004,25.0695483 C169.631982,24.3851876 168.545046,24.1111111 167.05103,24.1111111 C165.557014,24.1111111 163.655919,24.5222258 161.663064,25.2065865 L159.807014,25.8452678 L157.99601,22.6510309 C160.938996,20.3687213 164.379987,19 167.730886,19 C170.537067,19 173.072973,19.7300401 174.793051,21.5555556 C176.151095,22.9707868 176.966923,24.9781894 176.966923,27.9905391 L176.966923,37.0259271 L180,37.618929 L180,40.7683169 C178.913064,41.3156393 177.057014,41.7267541 175.834941,41.7267541 C174.25,41.7267541 173.027093,40.996714 171.940991,39.7642003 L170.763129,40.4037121 C168.726063,41.498357 166.824967,42 165.104055,42 C160.30502,42 157,38.7609143 157,34.516051 C157,30.5004153 159.988031,28.2189362 164.696975,28.2189362 L164.832946,28.2189362 C166.734042,28.2189362 169.314993,28.583541 171.125997,29.0860145 L171.125997,27.6251038 Z" id="Fill-15" fill="#FFFFFF" mask="url(#mask-6)"></path>
            </g>
        </g>
    </g>
</svg>