<?xml version="1.0" encoding="UTF-8"?>
<svg width="57px" height="83px" viewBox="0 0 57 83" version="1.1" xmlns="http://www.w3.org/2000/svg" xmlns:xlink="http://www.w3.org/1999/xlink">
    <title>icon/home/solar panel copy 4</title>
    <defs>
        <polygon id="path-1" points="0 0 56.509 0 56.509 60.8828 0 60.8828"></polygon>
    </defs>
    <g id="UI-Kit" stroke="none" stroke-width="1" fill="none" fill-rule="evenodd">
        <g id="iconos-sobre-verde" transform="translate(-728.000000, -203.000000)">
            <g id="icons/color/negative/bulb" transform="translate(709.000000, 197.000000)">
                <g id="Group-18" transform="translate(19.000000, 6.000000)">
                    <g id="Group-3" transform="translate(0.000000, 0.000200)">
                        <mask id="mask-2" fill="white">
                            <use xlink:href="#path-1"></use>
                        </mask>
                        <g id="Clip-2"></g>
                        <path d="M39.1785,60.8828 C40.5075,60.8828 41.7315,60.1118 42.3335,58.8758 C44.5135,54.3988 48.2335,50.3208 48.2335,50.3208 C59.2675,38.8078 59.2675,20.1408 48.2345,8.6268 C37.2105,-2.8762 19.2995,-2.8762 8.2755,8.6268 C-2.7585,20.1408 -2.7585,38.8078 8.2755,50.3208 C8.2755,50.3208 12.0145,54.3998 14.1995,58.8788 C14.8015,60.1128 16.0255,60.8828 17.3525,60.8828 L39.1785,60.8828 Z" id="Fill-1" fill="#F8DA2A" mask="url(#mask-2)"></path>
                    </g>
                    <path d="M17.4642,69.3029 L39.0462,69.3029 C40.1502,69.3029 41.0462,68.4069 41.0462,67.3029 C41.0462,66.1989 40.1502,65.3029 39.0462,65.3029 L17.4642,65.3029 C16.3602,65.3029 15.4642,66.1989 15.4642,67.3029 C15.4642,68.4069 16.3602,69.3029 17.4642,69.3029" id="Fill-4" fill="#FFFFFF"></path>
                    <path d="M17.4642,76.0861 L39.0462,76.0861 C40.1502,76.0861 41.0462,75.1901 41.0462,74.0861 C41.0462,72.9821 40.1502,72.0861 39.0462,72.0861 L17.4642,72.0861 C16.3602,72.0861 15.4642,72.9821 15.4642,74.0861 C15.4642,75.1901 16.3602,76.0861 17.4642,76.0861" id="Fill-6" fill="#FFFFFF"></path>
                    <path d="M22.9188,83.0001 L32.9288,83.0001 C34.0328,83.0001 34.9288,82.1041 34.9288,81.0001 C34.9288,79.8961 34.0328,79.0001 32.9288,79.0001 L22.9188,79.0001 C21.8148,79.0001 20.9188,79.8961 20.9188,81.0001 C20.9188,82.1041 21.8148,83.0001 22.9188,83.0001" id="Fill-8" fill="#000000"></path>
                    <polygon id="Fill-10" fill="#000000" points="25.3836 33.5158 25.3816 33.5158 25.3796 33.5158"></polygon>
                    <path d="M20.9627,33.547 L20.9567,33.546 L20.9627,33.547 Z" id="Fill-12" fill="#000000"></path>
                    <path d="M20.889,33.5343 L20.957,33.5463 C21.125,33.5653 21.288,33.5743 21.443,33.5733 C22.067,33.5753 22.652,33.4253 23.148,33.1533 C23.306,33.0673 23.439,32.9533 23.578,32.8463 C24.095,33.1923 24.701,33.4383 25.382,33.5153 C25.534,33.5343 25.68,33.5413 25.817,33.5413 C26.512,33.5443 27.154,33.3233 27.662,32.9743 C27.833,32.8593 27.972,32.7163 28.116,32.5783 C28.692,32.9583 29.376,33.2163 30.148,33.2523 L30.16,33.2523 L30.343,33.2563 C30.979,33.2573 31.575,33.0933 32.076,32.8083 C32.226,32.7233 32.351,32.6123 32.484,32.5103 C32.613,32.6063 32.731,32.7133 32.877,32.7913 C33.37,33.0583 33.952,33.1993 34.572,33.2063 L34.572,33.2093 L34.622,33.2123 L34.627,33.2123 L34.634,33.2123 L34.646,33.2123 L34.66,33.2133 C34.85,33.2133 35.033,33.1893 35.214,33.1633 L30.507,60.8833 L33.67,60.8833 L38.952,29.8093 C39.065,29.5043 39.179,29.1673 39.243,28.7803 L39.244,28.7803 L39.245,28.7693 L39.248,28.7583 L39.246,28.7583 C39.263,28.6583 39.273045,28.5583 39.273045,28.4603 C39.277,27.9263 39.014,27.4493 38.679,27.1673 C38.341,26.8803 37.939,26.7273 37.497,26.724292 C37.178,26.7233 36.816,26.8163 36.508,27.0583 C36.198,27.2983 35.988,27.6793 35.926,28.0563 L35.925,28.0593 C35.842,28.5453 35.589,28.9883 35.289,29.2863 C34.993,29.5913 34.66,29.7063 34.548,29.6953 L34.408,29.6203 C34.334,29.5313 34.193,29.2373 34.169,28.6583 L34.168,28.6583 C34.157,28.1743 33.914,27.6993 33.571,27.4273 C33.227,27.1443 32.83,27.0293 32.444,27.0283 C32.069,27.0293 31.675,27.1383 31.333,27.4233 C30.99,27.7003 30.759,28.1903 30.769,28.6663 L30.771,28.7393 L30.77,28.7393 L30.772,28.8093 C30.768,29.2283 30.646,29.4473 30.526,29.5803 C30.402,29.7133 30.257,29.7633 30.137,29.7633 C30.026,29.7613 29.946,29.7313 29.859,29.6423 C29.775,29.5523 29.658,29.3633 29.639,28.9433 L29.639,28.9383 C29.625,28.4663 29.399,27.9973 29.06,27.7143 C28.723,27.4263 28.321,27.3013 27.931,27.3013 C27.542,27.3013 27.138,27.4263 26.801,27.7173 C26.461,28.0033 26.239,28.4763 26.23,28.9493 L26.23,28.9453 C26.211,29.4343 26.069,29.7023 25.946,29.8413 C25.82,29.9793 25.71,30.0113 25.618,30.0133 C25.527,30.0093 25.444,29.9853 25.337,29.8663 C25.235,29.7473 25.105,29.4973 25.1,29.0143 L25.1,28.9933 L25.1,28.9823 L25.095,28.8813 C25.052,28.4073 24.804,27.9693 24.47,27.7033 C24.136,27.4323 23.743,27.3073 23.35,27.3063 C22.968,27.3063 22.556,27.4293 22.22,27.7333 C21.879,28.0343 21.682,28.5203 21.69,28.9823 L21.697,29.0993 C21.712,29.2253 21.72,29.3693 21.72,29.4983 C21.72,29.8243 21.64,30.0533 21.598,30.1003 L21.556,30.1393 C21.536,30.1493 21.48,30.1733 21.34,30.1743 L21.313,30.1743 C21.061,30.1613 20.852,30.0553 20.606,29.7843 C20.374,29.5253 20.172,29.1203 20.066,28.7263 L19.926,27.8883 C19.881,27.6173 19.724,27.3753 19.496,27.2223 L19.351,27.1633 C19.009,26.8813 18.596,26.7543 18.195,26.7523 C17.841,26.7533 17.459,26.8503 17.124,27.1263 C16.785,27.3943 16.563,27.8753 16.574,28.3263 L16.587,28.5373 C16.674,29.3033 16.894,30.0643 17.246,30.7713 L22.362,60.8833 L25.533,60.8833 L20.889,33.5343 Z" id="Fill-14" fill="#000000"></path>
                    <polygon id="Fill-16" fill="#000000" points="16.5867 28.5392 16.5867 28.5372 16.5867 28.5352"></polygon>
                </g>
            </g>
        </g>
    </g>
</svg>