<?xml version="1.0" encoding="UTF-8"?>
<svg width="51px" height="51px" viewBox="0 0 51 51" version="1.1" xmlns="http://www.w3.org/2000/svg" xmlns:xlink="http://www.w3.org/1999/xlink">
    <title>Group 17</title>
    <g id="Symbols" stroke="none" stroke-width="1" fill="none" fill-rule="evenodd">
        <g id="general-assets/bot" transform="translate(-18.000000, -33.000000)">
            <g id="Group-17" transform="translate(18.000000, 33.000000)">
                <circle id="Oval" fill="#78BE21" cx="25.5" cy="25.5" r="25.5"></circle>
                <circle id="Oval-Copy" fill="#8AD330" cx="26.5" cy="26.5" r="18.5"></circle>
                <g id="Group-9" transform="translate(7.000000, 8.000000)">
                    <rect id="Rectangle" fill="#F0E6E7" x="0" y="17.6218964" width="10.2857143" height="10.3506714" rx="5.14285714"></rect>
                    <rect id="Rectangle-Copy-5" fill="#F0E6E7" x="28.7142857" y="17.6218964" width="10.2857143" height="10.3506714" rx="5.14285714"></rect>
                    <rect id="Rectangle-Copy-7" fill="#F0E6E7" x="13.2680412" y="22.9344569" width="13.7142857" height="13.8008952" rx="6.85714286"></rect>
                    <rect id="Rectangle-Copy-6" fill="#FEFCFD" x="14.4742268" y="8.86891386" width="11.5714286" height="11.6445053" rx="5.78571429"></rect>
                    <path d="M16.0671858,11.2801498 L24.4924608,11.2801498 C30.9235435,11.2801498 36.1369661,16.4935724 36.1369661,22.9246552 C36.1369661,29.3557379 30.9235435,34.5691605 24.4924608,34.5691605 L16.0671858,34.5691605 C9.63610304,34.5691605 4.42268041,29.3557379 4.42268041,22.9246552 C4.42268041,16.4935724 9.63610304,11.2801498 16.0671858,11.2801498 Z" id="Rectangle" fill="#FEFCFD"></path>
                    <g id="Group-2" transform="translate(10.453608, 17.710112)">
                        <g id="Group-3">
                            <g id="Group" transform="translate(14.474227, 0.000000)">
                                <ellipse id="Oval-Copy-2" fill="#000000" cx="2.61340206" cy="2.61217228" rx="2.61340206" ry="2.61217228"></ellipse>
                                <ellipse id="Oval" fill="#FFFFFF" cx="3.41752577" cy="1.80842697" rx="1" ry="1"></ellipse>
                            </g>
                            <g id="Group-Copy">
                                <ellipse id="Oval-Copy-2" fill="#000000" cx="2.81443299" cy="2.81310861" rx="2.81443299" ry="2.81310861"></ellipse>
                                <ellipse id="Oval" fill="#FFFFFF" cx="3.81958763" cy="1.80842697" rx="1" ry="1"></ellipse>
                            </g>
                        </g>
                        <path d="M15.2361192,9.37689421 C15.6062812,9.13163333 16.1052737,9.23274452 16.35065,9.60273238 C16.5960264,9.97272023 16.4948676,10.4714779 16.1247055,10.7167387 C13.9773516,12.1395262 11.8184707,12.8599251 9.65878169,12.8599251 C7.48526575,12.8599251 5.436676,12.1298361 3.53452715,10.6870852 C3.18075004,10.4187506 3.11158756,9.91456445 3.38004843,9.56095381 C3.6485093,9.20734317 4.15293285,9.13821324 4.50670996,9.40654778 C6.1368023,10.642948 7.84698797,11.2524345 9.65878169,11.2524345 C11.4844023,11.2524345 13.3399419,10.6332578 15.2361192,9.37689421 Z" id="Path-5" fill="#000000" fill-rule="nonzero"></path>
                    </g>
                    <path d="M26.3334977,0.758545691 C26.5958392,0.400375839 27.0989996,0.322591472 27.4573381,0.584809447 C27.7977597,0.833916522 27.8850142,1.30026052 27.6679636,1.65335803 L27.6311562,1.70812098 L20.9974777,10.7649585 C20.6955637,11.177156 20.0961041,11.2035309 19.757654,10.8353272 L19.7150344,10.7850622 L12.6344272,1.72822474 C12.3609775,1.37845402 12.4229815,0.873338406 12.7729168,0.60001743 C13.1053555,0.340362503 13.5780588,0.383311976 13.858947,0.688140727 L13.9016553,0.738441928 L20.3274433,8.95812959 L26.3334977,0.758545691 Z" id="Path-7" fill="#FFFFFF" fill-rule="nonzero"></path>
                </g>
            </g>
        </g>
    </g>
</svg>