<?xml version="1.0" encoding="UTF-8"?>
<svg width="79px" height="84px" viewBox="0 0 79 84" version="1.1" xmlns="http://www.w3.org/2000/svg" xmlns:xlink="http://www.w3.org/1999/xlink">
    <title>icons/line/green/solicito copy 27</title>
    <defs>
        <polygon id="path-1" points="0.7394 0.894 7.4074 0.894 7.4074 7.5618 0.7394 7.5618"></polygon>
    </defs>
    <g id="UI-Kit---General" stroke="none" stroke-width="1" fill="none" fill-rule="evenodd">
        <g id="iconos-en-verde" transform="translate(-120.000000, -133.000000)">
            <g id="Group" transform="translate(112.000000, 127.000000)">
                <g id="Group-36" transform="translate(8.000000, 5.000000)">
                    <path d="M63.3654,33.032 C63.3654,33.032 57.3704,29.271 53.1944,30.609 C47.9414,32.292 46.7704,38.421 46.7704,38.421 C46.7704,38.421 51.2844,42.728 56.5374,41.046 C61.0484,39.6 63.3654,33.032 63.3654,33.032" id="Fill-1" fill="#76BD21"></path>
                    <line x1="56.4933" y1="35.3435" x2="46.7963" y2="38.2265" id="Stroke-3" stroke="#F8DA2A" stroke-width="0.241" stroke-linecap="round"></line>
                    <line x1="52.5143" y1="36.5183" x2="54.8233" y2="33.6023" id="Stroke-5" stroke="#F8DA2A" stroke-width="0.241" stroke-linecap="round"></line>
                    <line x1="57.485" y1="35.6433" x2="56.42" y2="35.3383" id="Stroke-7" stroke="#F8DA2A" stroke-width="0.241" stroke-linecap="round"></line>
                    <line x1="53.2184" y1="38.072" x2="51.3194" y2="37.016" id="Stroke-9" stroke="#F8DA2A" stroke-width="0.241" stroke-linecap="round"></line>
                    <line x1="57.5314" y1="34.4587" x2="56.4264" y2="35.3257" id="Stroke-11" stroke="#F8DA2A" stroke-width="0.241" stroke-linecap="round"></line>
                    <line x1="48.569" y1="37.7341" x2="49.621" y2="35.8331" id="Stroke-13" stroke="#F8DA2A" stroke-width="0.241" stroke-linecap="round"></line>
                    <path d="M34.5997,6.0447 C34.5997,6.0447 30.3947,17.4607 34.1237,24.0147 C38.8137,32.2567 49.5397,32.0577 49.5397,32.0577 C49.5397,32.0577 55.1897,22.9387 50.4997,14.6957 C46.4717,7.6177 34.5997,6.0447 34.5997,6.0447" id="Fill-15" fill="#76BD21"></path>
                    <line x1="40.922" y1="16.7878" x2="49.204" y2="32.0828" id="Stroke-17" stroke="#F8DA2A" stroke-width="0.415" stroke-linecap="round"></line>
                    <line x1="44.3063" y1="23.0671" x2="38.5833" y2="20.2131" id="Stroke-19" stroke="#F8DA2A" stroke-width="0.415" stroke-linecap="round"></line>
                    <line x1="41.0744" y1="15.0134" x2="40.9394" y2="16.9124" id="Stroke-21" stroke="#F8DA2A" stroke-width="0.415" stroke-linecap="round"></line>
                    <line x1="46.6705" y1="21.3318" x2="45.5665" y2="24.9008" id="Stroke-23" stroke="#F8DA2A" stroke-width="0.415" stroke-linecap="round"></line>
                    <line x1="39.0651" y1="15.3542" x2="40.9151" y2="16.9082" id="Stroke-25" stroke="#F8DA2A" stroke-width="0.415" stroke-linecap="round"></line>
                    <line x1="47.7472" y1="29.2741" x2="44.1762" y2="28.1761" id="Stroke-27" stroke="#F8DA2A" stroke-width="0.415" stroke-linecap="round"></line>
                    <path d="M33.4689,41.7488 L22.7169,31.1288 L28.8469,24.9988 L36.2179,32.3688 C37.4789,33.6318 39.6429,33.6318 41.0859,32.3688 L71.7379,1.7178 L77.6879,7.6678 L43.6299,41.7258 C40.8269,44.5278 36.2849,44.5388 33.4689,41.7488" id="Fill-29" fill="#F8DA2A"></path>
                    <g id="Group-33" transform="translate(71.000000, 0.106300)">
                        <mask id="mask-2" fill="white">
                            <use xlink:href="#path-1"></use>
                        </mask>
                        <g id="Clip-32"></g>
                        <polygon id="Fill-31" fill="#000000" mask="url(#mask-2)" points="7.4074 6.8358 6.6864 7.5618 0.7394 1.6108 1.5144 0.8938"></polygon>
                    </g>
                    <path d="M78.1896,44.4421 C77.9426,44.0631 77.5196,43.8351 77.0656,43.8351 L76.2496,43.8351 C72.6176,43.8351 69.1476,45.5681 67.0276,48.4001 L58.1466,58.6311 C58.1596,58.8851 58.4706,64.8761 58.4706,64.9281 C58.4706,68.2921 55.7336,71.0281 52.3706,71.0281 L34.6536,71.0281 C32.3506,71.0281 30.0126,71.4661 27.8896,72.1251 C27.0646,72.3801 26.4336,69.8441 27.0476,69.5751 C29.0706,68.6901 32.0616,68.3421 34.6536,68.3421 L52.3706,68.3421 C56.6636,68.3421 56.0906,62.8821 56.0906,61.0001 C55.0156,59.2621 53.0916,58.1041 50.9026,58.1041 L38.2046,58.1041 C35.3696,58.1041 32.6416,57.3411 30.3136,55.8981 C27.1076,53.9091 24.6456,52.6561 18.2246,51.2291 C6.8076,48.6891 0.5806,57.0361 0.2686,57.4531 C0.0946,57.6841 0.0006,57.9671 0.0006,58.2571 L0.0006,71.3381 C0.0006,72.0281 0.5226,72.6051 1.2086,72.6731 L5.3786,73.0901 C10.3646,73.5881 13.9756,74.8541 18.5686,76.8531 L28.5596,82.3731 C31.2156,83.5281 34.0826,84.1061 36.9516,84.1061 C39.6106,84.1061 42.2706,83.6101 44.7616,82.6141 L54.8846,78.5651 L56.6256,78.1301 C61.8366,76.8271 66.2406,73.1131 68.4026,68.1961 L78.2936,45.7161 C78.4766,45.3011 78.4376,44.8221 78.1896,44.4421" id="Fill-34" fill="#F8DA2A"></path>
                </g>
            </g>
        </g>
    </g>
</svg>