<?xml version="1.0" encoding="UTF-8"?>
<svg width="95px" height="95px" viewBox="0 0 95 95" version="1.1" xmlns="http://www.w3.org/2000/svg" xmlns:xlink="http://www.w3.org/1999/xlink">
    <title>icons/color/positive/comoda</title>
    <g id="icons/color/positive/comoda" stroke="none" stroke-width="1" fill="none" fill-rule="evenodd">
        <g id="Group-19" transform="translate(19.000000, 10.000000)">
            <path d="M47.631,-1.42108547e-14 C47.631,-1.42108547e-14 38.39,8.007 38.39,14.995 C38.39,23.784 47.838,28.54 47.838,28.54 C47.838,28.54 57.285,23.784 57.285,14.995 C57.285,7.447 47.631,-1.42108547e-14 47.631,-1.42108547e-14" id="Fill-1" fill="#41BD00"></path>
            <line x1="47.9191" y1="12.3438" x2="47.9191" y2="28.1558" id="Stroke-3" stroke="#FFDB00" stroke-width="0.645" stroke-linecap="round"></line>
            <line x1="51.3068" y1="14.9766" x2="48.0508" y2="18.1706" id="Stroke-5" stroke="#FFDB00" stroke-width="0.645" stroke-linecap="round"></line>
            <line x1="47.8375" y1="14.8487" x2="45.7345" y2="12.2347" id="Stroke-7" stroke="#FFDB00" stroke-width="0.645" stroke-linecap="round"></line>
            <line x1="47.9191" y1="21.9287" x2="46.1531" y2="20.1897" id="Stroke-9" stroke="#FFDB00" stroke-width="0.645" stroke-linecap="round"></line>
            <path d="M56.8634,48.2041 C56.7244,45.5611 54.0814,43.3361 51.4384,43.3361 L49.6294,43.3361 C52.4114,43.3361 54.7764,40.9711 54.7764,38.1881 C54.7764,35.4071 52.4114,33.0421 49.6294,33.0421 L30.4334,33.0421 C33.9104,20.6611 30.9894,14.9581 30.9894,14.9581 C26.2594,6.3331 20.2784,8.6981 18.6094,9.6721 C18.3304,9.8111 18.1914,10.0891 18.1914,10.5071 L19.0264,16.0711 C19.8614,21.6351 18.4694,27.1991 15.1314,31.7901 L6.3674,43.4751 L6.3674,72.1311 C6.3674,73.3831 7.3414,74.3561 8.5934,74.3561 L30.8504,74.3561 L41.7004,74.3561 L48.2384,74.3561 C50.8824,74.3561 53.5244,72.1311 53.6634,69.4881 C53.8024,66.5661 51.4384,64.0621 48.5164,64.0621 C51.2994,64.0621 53.6634,61.6981 53.6634,58.9161 C53.6634,56.1341 51.2994,53.7681 48.5164,53.7681 L51.7164,53.7681 C54.6374,53.6301 57.0024,51.1261 56.8634,48.2041" id="Fill-11" fill="#FFDB00"></path>
            <path d="M5.317,42.2989 L1.012,42.2989 C0.455,42.2989 0,43.3969 0,44.7369 L0,71.9189 C0,73.2599 0.455,74.3569 1.012,74.3569 L5.317,74.3569 C5.874,74.3569 6.33,73.2599 6.33,71.9189 L6.33,44.7369 C6.33,43.3969 5.874,42.2989 5.317,42.2989" id="Fill-13" fill="#000000"></path>
            <path d="M3.3312,67.293 C4.3902,67.293 5.2482,68.15 5.2482,69.21 C5.2482,70.269 4.3902,71.127 3.3312,71.127 C2.2722,71.127 1.4142,70.269 1.4142,69.21 C1.4142,68.15 2.2722,67.293 3.3312,67.293" id="Fill-15" fill="#FFDB00"></path>
            <path d="M18.1915,10.3672 C18.1915,10.3672 20.2785,11.2022 20.8345,14.1232 C21.2525,15.7932 20.8345,17.7402 19.3045,18.4352 L18.1915,10.3672 Z" id="Fill-17" fill="#F1F1F1"></path>
        </g>
    </g>
</svg>