<?xml version="1.0" encoding="UTF-8"?>
<svg width="95px" height="95px" viewBox="0 0 95 95" version="1.1" xmlns="http://www.w3.org/2000/svg" xmlns:xlink="http://www.w3.org/1999/xlink">
    <title>icons/color/positive/eficiencia y responsabilidad</title>
    <defs>
        <polygon id="path-1" points="0.5019 0.138791351 42.3669 0.138791351 42.3669 27 0.5019 27"></polygon>
        <polygon id="path-3" points="0.398704482 0.84 46.591 0.84 46.591 69.5067 0.398704482 69.5067"></polygon>
        <polygon id="path-5" points="0 0.873685354 31.9044 0.873685354 31.9044 37.2199727 0 37.2199727"></polygon>
    </defs>
    <g id="icons/color/positive/eficiencia-y-responsabilidad" stroke="none" stroke-width="1" fill="none" fill-rule="evenodd">
        <g id="Group-30" transform="translate(6.000000, 9.000000)">
            <g id="Group-3" transform="translate(13.000000, 49.160100)">
                <mask id="mask-2" fill="white">
                    <use xlink:href="#path-1"></use>
                </mask>
                <g id="Clip-2"></g>
                <path d="M37.7239,6.3221 C37.7239,15.3181 30.4309,22.6111 21.4349,22.6111 C12.4379,22.6111 5.1449,15.3181 5.1449,6.3221 C5.1449,6.1251 5.1489,5.9281 5.1559,5.7321 C5.3719,-0.3439 0.9229,-2.6859 0.5299,4.9811 C0.5119,5.3411 0.5019,5.7031 0.5019,6.0681 C0.5019,17.6281 9.8739,27.0001 21.4349,27.0001 C32.9949,27.0001 42.3669,17.6281 42.3669,6.0681" id="Fill-1" fill="#F8DA2A" mask="url(#mask-2)"></path>
            </g>
            <g id="Group-6" transform="translate(37.000000, 0.160100)">
                <mask id="mask-4" fill="white">
                    <use xlink:href="#path-3"></use>
                </mask>
                <g id="Clip-5"></g>
                <path d="M35.0525,0.8397 C35.0525,0.8397 7.8415,11.7137 2.1225,28.9517 C-5.0705,50.6307 12.5735,69.5067 12.5735,69.5067 C12.5735,69.5067 38.0025,64.9207 45.1955,43.2417 C51.3715,24.6237 35.0525,0.8397 35.0525,0.8397" id="Fill-4" fill="#76BC21" mask="url(#mask-4)"></path>
            </g>
            <line x1="63.0139" y1="29.6306" x2="48.9859" y2="69.1066" id="Stroke-7" stroke="#F8DA2A" stroke-linecap="round"></line>
            <line x1="57.2302" y1="45.8089" x2="53.1122" y2="30.9669" id="Stroke-9" stroke="#F8DA2A" stroke-linecap="round"></line>
            <line x1="66.4353" y1="27.0442" x2="62.8183" y2="29.8632" id="Stroke-11" stroke="#F8DA2A" stroke-linecap="round"></line>
            <line x1="64.1462" y1="47.2444" x2="55.9792" y2="51.0224" id="Stroke-13" stroke="#F8DA2A" stroke-linecap="round"></line>
            <line x1="62.5872" y1="23.9973" x2="62.7882" y2="29.8113" id="Stroke-15" stroke="#F8DA2A" stroke-linecap="round"></line>
            <line x1="51.6663" y1="61.9729" x2="47.8753" y2="53.8119" id="Stroke-17" stroke="#F8DA2A" stroke-linecap="round"></line>
            <path d="M15.823,50.6624 C17.11,50.6624 18.153,50.7754 18.153,50.9144 L18.153,54.2144 C18.153,54.3534 17.11,54.4664 15.823,54.4664 C14.536,54.4664 13.492,54.3534 13.492,54.2144 L13.492,50.9144 C13.492,50.7754 14.536,50.6624 15.823,50.6624" id="Fill-19" fill="#F5D82A"></path>
            <path d="M15.823,53.8675 C17.11,53.8675 18.153,53.9085 18.153,53.9595 L18.153,55.1625 C18.153,55.2135 17.11,55.2545 15.823,55.2545 C14.536,55.2545 13.492,55.2135 13.492,55.1625 L13.492,53.9595 C13.492,53.9085 14.536,53.8675 15.823,53.8675" id="Fill-21" fill="#000000"></path>
            <g id="Group-25" transform="translate(0.000000, 14.160100)">
                <mask id="mask-6" fill="white">
                    <use xlink:href="#path-5"></use>
                </mask>
                <g id="Clip-24"></g>
                <path d="M17.1614,37.2137 C13.7104,37.2987 10.4924,36.5157 7.5414,35.1167 C4.5884,33.7207 2.0784,31.7637 -0.0006,29.6137 C1.9404,27.8987 3.9084,25.8437 5.8934,23.5967 C7.7044,25.0817 9.6254,26.2337 11.6514,26.9347 C13.6774,27.6377 15.6944,27.9847 17.6924,27.9497 C18.7244,27.9327 19.4634,27.7737 19.9144,27.4917 C20.3644,27.2117 20.5894,26.8387 20.5894,26.3777 L20.5894,26.2777 C20.5894,25.7827 20.2604,25.3827 19.6004,25.0667 C18.9414,24.7517 17.7084,24.4267 15.9044,24.0587 C14.0014,23.6577 12.1884,23.1607 10.4714,22.5977 C8.7534,22.0367 7.2524,21.3317 5.9654,20.5197 C4.6784,19.7087 3.6614,18.7377 2.9064,17.6187 C2.1524,16.4977 1.7764,15.1397 1.7764,13.4747 L1.7764,13.3857 C1.7764,11.8997 2.0814,10.4827 2.6944,9.0837 C3.3074,7.6887 4.2044,6.3737 5.3934,5.1657 C6.5834,3.9607 8.0654,2.9107 9.8454,2.1197 C11.6244,1.3287 13.6794,0.8707 16.0004,0.873685354 C19.2894,0.8757 22.1624,1.6007 24.6014,2.7567 C27.0414,3.9137 29.2104,5.5247 31.1114,7.3547 C29.3354,9.2607 27.5364,11.4757 25.7244,13.8727 C24.1344,12.6407 22.4464,11.6757 20.6624,11.0597 C18.8784,10.4417 17.1924,10.1317 15.6134,10.1377 C14.7754,10.1407 14.1554,10.2867 13.7524,10.5607 C13.3494,10.8347 13.1474,11.1897 13.1484,11.6207 L13.1484,11.7207 C13.1484,11.9537 13.2124,12.1687 13.3414,12.3657 C13.4704,12.5627 13.7034,12.7507 14.0424,12.9287 C14.3804,13.1077 14.8394,13.2777 15.4204,13.4437 C16.0004,13.6097 16.7424,13.7767 17.6444,13.9517 C19.8044,14.3707 21.7654,14.9057 23.5244,15.5077 C25.2824,16.1117 26.7824,16.8517 28.0294,17.6907 C29.2754,18.5307 30.2294,19.4827 30.9014,20.5467 C31.5714,21.6137 31.9044,22.8747 31.9044,24.3967 L31.9044,24.4837 C31.9044,26.0627 31.5634,27.5307 30.8774,28.9507 C30.1914,30.3697 29.2204,31.6907 27.9584,32.8807 C26.6954,34.0677 25.1474,35.1107 23.3074,35.8997 C21.4684,36.6877 19.4174,37.1617 17.1614,37.2137" id="Fill-23" fill="#F8DA2A" mask="url(#mask-6)"></path>
            </g>
            <path d="M15.823,15.47 C14.536,15.47 13.492,15.357 13.492,15.218 L13.492,11.918 C13.492,11.779 14.536,11.666 15.823,11.666 C17.11,11.666 18.153,11.779 18.153,11.918 L18.153,15.218 C18.153,15.357 17.11,15.47 15.823,15.47" id="Fill-26" fill="#F5D82A"></path>
            <path d="M15.823,12.2649 C14.536,12.2649 13.492,12.2239 13.492,12.1729 L13.492,10.9699 C13.492,10.9189 14.536,10.8769 15.823,10.8769 C17.11,10.8769 18.153,10.9189 18.153,10.9699 L18.153,12.1729 C18.153,12.2239 17.11,12.2649 15.823,12.2649" id="Fill-28" fill="#000000"></path>
        </g>
    </g>
</svg>