<?xml version="1.0" encoding="UTF-8"?>
<svg width="52px" height="76px" viewBox="0 0 52 76" version="1.1" xmlns="http://www.w3.org/2000/svg" xmlns:xlink="http://www.w3.org/1999/xlink">
    <title>icons/line/green/solicito copy 28</title>
    <defs>
        <polygon id="path-1" points="3.04093567e-05 0.0862379562 51.9227602 0.0862379562 51.9227602 62.9145591 3.04093567e-05 62.9145591"></polygon>
        <path d="M0.0463636364,0.513386364 L0.0463636364,6.42440909 C0.0463636364,6.67481818 1.12833333,6.87622727 2.46212121,6.87622727 L2.46212121,6.87622727 C3.79590909,6.87622727 4.8780303,6.67481818 4.8780303,6.42440909 L4.8780303,6.42440909 L4.8780303,0.513386364 C4.8780303,0.262977273 3.79590909,0.0615681818 2.46212121,0.0615681818 L2.46212121,0.0615681818 C1.12833333,0.0615681818 0.0463636364,0.262977273 0.0463636364,0.513386364 L0.0463636364,0.513386364 Z" id="path-3"></path>
        <path d="M2.26060606,0.0885882353 C1.02106061,0.0963529412 0.0463636364,0.175764706 0.0463636364,0.271235294 L0.0463636364,0.271235294 L0.0463636364,2.664 C0.0463636364,2.76458824 1.12833333,2.84629412 2.46212121,2.84629412 L2.46212121,2.84629412 C3.79590909,2.84629412 4.8780303,2.76458824 4.8780303,2.664 L4.8780303,2.664 L4.8780303,0.271235294 C4.8780303,0.175764706 3.90318182,0.0963529412 2.66363636,0.0885882353 L2.66363636,0.0885882353 L2.26060606,0.0885882353 Z" id="path-5"></path>
        <path d="M0.0463636364,0.575272727 L0.0463636364,6.48756818 C0.0463636364,6.73686364 1.12833333,6.93922727 2.46212121,6.93922727 L2.46212121,6.93922727 C3.79590909,6.93922727 4.8780303,6.73686364 4.8780303,6.48756818 L4.8780303,6.48756818 L4.8780303,0.575272727 C4.8780303,0.325977273 3.79590909,0.124568182 2.46212121,0.124568182 L2.46212121,0.124568182 C1.12833333,0.124568182 0.0463636364,0.325977273 0.0463636364,0.575272727 L0.0463636364,0.575272727 Z" id="path-7"></path>
        <path d="M0.0463636364,0.337411765 L0.0463636364,2.72911765 C0.0463636364,2.82952941 1.12833333,2.91229412 2.46212121,2.91229412 L2.46212121,2.91229412 C3.79590909,2.91229412 4.8780303,2.82952941 4.8780303,2.72911765 L4.8780303,2.72911765 L4.8780303,0.337411765 C4.8780303,0.235764706 3.79590909,0.154235294 2.46212121,0.154235294 L2.46212121,0.154235294 C1.12833333,0.154235294 0.0463636364,0.235764706 0.0463636364,0.337411765 L0.0463636364,0.337411765 Z" id="path-9"></path>
    </defs>
    <g id="UI-Kit---General" stroke="none" stroke-width="1" fill="none" fill-rule="evenodd">
        <g id="iconos-en-verde" transform="translate(-292.000000, -136.000000)">
            <g id="Group" transform="translate(270.000000, 127.000000)">
                <g id="Group-16" transform="translate(22.000000, 9.000000)">
                    <g id="Group-3" transform="translate(0.000000, 6.000000)">
                        <mask id="mask-2" fill="white">
                            <use xlink:href="#path-1"></use>
                        </mask>
                        <g id="Clip-2"></g>
                        <path d="M51.9227906,22.4811285 L51.9227906,20.6404861 C51.9227906,9.30692409 42.7765684,0.0862379562 31.5345333,0.0862379562 L27.6234339,0.0862379562 C22.2473637,0.0862379562 17.1124398,2.12032555 13.164393,5.81387299 C9.6560655,9.09585109 7.36928187,13.4146467 6.61923509,18.1160409 L3.04093567e-05,18.1160409 L3.04093567e-05,29.6568438 L6.34828772,29.6568438 L6.34828772,33.3441066 L3.04093567e-05,33.3441066 L3.04093567e-05,44.8849095 L6.61923509,44.8849095 C7.36928187,49.5863036 9.6560655,53.904946 13.164393,57.1870774 C17.1125918,60.8804715 22.2475158,62.9145591 27.6234339,62.9145591 L31.5345333,62.9145591 C42.7765684,62.9145591 51.9227906,53.6940263 51.9227906,42.3604642 L51.9227906,40.5196686 L40.4811181,40.5196686 L40.4811181,42.3604642 C40.4811181,47.3336321 36.4678433,51.3797343 31.5345333,51.3797343 L27.6234339,51.3797343 C23.4482292,51.3797343 19.7896795,48.7023109 18.3931298,44.8849095 L29.0053871,44.8849095 L29.0053871,33.3441066 L17.7899602,33.3441066 L17.7899602,29.6568438 L29.0053871,29.6568438 L29.0053871,18.1160409 L18.3931298,18.1160409 C19.7896795,14.2986394 23.4483813,11.6212161 27.6234339,11.6212161 L31.5345333,11.6212161 C36.4678433,11.6212161 40.4811181,15.667165 40.4811181,20.6404861 L40.4811181,22.4811285 L51.9227906,22.4811285 Z" id="Fill-1" fill="#FFDB00" mask="url(#mask-2)"></path>
                    </g>
                    <g id="Group-6" transform="translate(26.000000, 1.000000)">
                        <mask id="mask-4" fill="white">
                            <use xlink:href="#path-3"></use>
                        </mask>
                        <g id="Clip-5"></g>
                        <polygon id="Fill-4" fill="#FFD900" mask="url(#mask-4)" points="-5.02893939 12.2054545 9.95333333 12.2054545 9.95333333 -5.2675 -5.02893939 -5.2675"></polygon>
                    </g>
                    <g id="Group-9" transform="translate(26.000000, 0.000000)">
                        <mask id="mask-6" fill="white">
                            <use xlink:href="#path-5"></use>
                        </mask>
                        <g id="Clip-8"></g>
                        <polygon id="Fill-7" fill="#000000" mask="url(#mask-6)" points="-5.02893939 8.75735294 9.95333333 8.75735294 9.95333333 -5.82317647 -5.02893939 -5.82317647"></polygon>
                    </g>
                    <g id="Group-12" transform="translate(26.000000, 68.000000)">
                        <mask id="mask-8" fill="white">
                            <use xlink:href="#path-7"></use>
                        </mask>
                        <g id="Clip-11"></g>
                        <polygon id="Fill-10" fill="#FFD900" mask="url(#mask-8)" points="-5.02893939 12.2682955 9.95333333 12.2682955 9.95333333 -5.2045 -5.02893939 -5.2045"></polygon>
                    </g>
                    <g id="Group-15" transform="translate(26.000000, 73.000000)">
                        <mask id="mask-10" fill="white">
                            <use xlink:href="#path-9"></use>
                        </mask>
                        <g id="Clip-14"></g>
                        <polygon id="Fill-13" fill="#000000" mask="url(#mask-10)" points="-5.02893939 8.82352941 9.95333333 8.82352941 9.95333333 -5.757 -5.02893939 -5.757"></polygon>
                    </g>
                </g>
            </g>
        </g>
    </g>
</svg>