<?xml version="1.0" encoding="UTF-8"?>
<svg width="81px" height="75px" viewBox="0 0 81 75" version="1.1" xmlns="http://www.w3.org/2000/svg" xmlns:xlink="http://www.w3.org/1999/xlink">
    <title>icons/line/green/solicito copy 32</title>
    <defs>
        <polygon id="path-1" points="0 0.42215625 40.8139744 0.42215625 40.8139744 74.9993438 0 74.9993438"></polygon>
        <polygon id="path-3" points="0.781204938 0.42215625 75.4210864 0.42215625 75.4210864 74.9993438 0.781204938 74.9993438"></polygon>
    </defs>
    <g id="UI-Kit---General" stroke="none" stroke-width="1" fill="none" fill-rule="evenodd">
        <g id="iconos-en-verde" transform="translate(-910.000000, -137.000000)">
            <g id="Group" transform="translate(903.000000, 127.000000)">
                <g id="Group-9" transform="translate(7.000000, 10.000000)">
                    <g id="Group-3">
                        <mask id="mask-2" fill="white">
                            <use xlink:href="#path-1"></use>
                        </mask>
                        <g id="Clip-2"></g>
                        <path d="M5.7770907,37.7102813 C5.7770907,18.0734063 21.2188349,1.99246875 40.8139744,0.54028125 C39.8595326,0.46903125 38.8984163,0.42215625 37.9249047,0.42215625 C16.9796256,0.42215625 -9.53488372e-05,17.1162188 -9.53488372e-05,37.7102813 C-9.53488372e-05,58.3052813 16.9796256,74.9993438 37.9249047,74.9993438 C38.8984163,74.9993438 39.8595326,74.9524687 40.8139744,74.8812188 C21.2188349,73.4290312 5.7770907,57.3480938 5.7770907,37.7102813" id="Fill-1" fill="#76BD21" mask="url(#mask-2)"></path>
                    </g>
                    <g id="Group-6" transform="translate(5.000000, 0.000000)">
                        <mask id="mask-4" fill="white">
                            <use xlink:href="#path-3"></use>
                        </mask>
                        <g id="Clip-5"></g>
                        <path d="M75.4216494,37.7102813 C75.4216494,58.3052813 58.7129086,74.9993438 38.1018963,74.9993438 C17.4899457,74.9993438 0.781204938,58.3052813 0.781204938,37.7102813 C0.781204938,17.1162188 17.4899457,0.42215625 38.1018963,0.42215625 C58.7129086,0.42215625 75.4216494,17.1162188 75.4216494,37.7102813" id="Fill-4" fill="#F8DA2A" mask="url(#mask-4)"></path>
                    </g>
                    <path d="M50.3568934,50.2045014 C45.3320445,52.1378792 39.6653082,50.927058 35.86724,47.0987264 C35.0880054,46.3171283 34.4068758,45.4577451 33.8416037,44.4999594 L49.2665255,44.4999594 C50.3372724,44.4999594 51.2136778,43.6218329 51.2136778,42.5469011 C51.2136778,41.4729065 50.3372724,40.5938428 49.2665255,40.5938428 L32.2448267,40.5938428 C31.9140724,39.2461952 31.8169017,37.8582492 31.9336934,36.490921 L50.2980303,36.490921 C51.3687772,36.490921 52.2451826,35.6127945 52.2451826,34.5378628 C52.2451826,33.4638681 51.3687772,32.5848045 50.2980303,32.5848045 L32.8297198,32.5848045 C33.4912284,30.8266772 34.5432886,29.2447375 35.86724,27.9158332 C39.6653082,24.0875016 45.3320445,22.8560627 50.3568934,24.7903776 C51.3687772,25.1811767 52.4787661,24.6732316 52.8683835,23.677022 C53.2580008,22.6808123 52.7515917,21.5477761 51.7583945,21.1579142 C45.2937368,18.6762931 37.9900471,20.25917 33.1212321,25.1811767 C31.057288,27.2317005 29.5576818,29.7911065 28.7195841,32.5848045 L26.9480866,32.5848045 C25.8764054,32.5848045 25,33.4638681 25,34.5378628 C25,35.6127945 25.8764054,36.490921 26.9480866,36.490921 L28.0384545,36.490921 C27.9412838,37.8582492 28.0384545,39.2461952 28.2916591,40.5938428 L26.9677076,40.5938428 C25.8960264,40.5938428 25.019621,41.4729065 25.019621,42.5469011 C25.019621,43.6218329 25.8960264,44.4999594 26.9677076,44.4999594 L29.4791977,44.4999594 C30.3369164,46.6488858 31.5636971,48.2898671 33.1212321,49.8530634 C38.0096681,54.7553896 45.3124235,56.3176488 51.7583945,53.8379021 C52.7515917,53.447103 53.2580008,52.3140668 52.8683835,51.3169199 C52.4787661,50.3216474 51.3500905,49.8137023 50.3568934,50.2045014" id="Fill-7" fill="#76BD21"></path>
                </g>
            </g>
        </g>
    </g>
</svg>