<?xml version="1.0" encoding="UTF-8"?>
<svg width="95px" height="95px" viewBox="0 0 95 95" version="1.1" xmlns="http://www.w3.org/2000/svg" xmlns:xlink="http://www.w3.org/1999/xlink">
    <title>icons/color/positive/flexible</title>
    <defs>
        <polygon id="path-1" points="0.6334 0.32884947 5.266 0.32884947 5.266 9.64892902 0.6334 9.64892902"></polygon>
        <polygon id="path-3" points="0.378386942 0.958 9.69845053 0.958 9.69845053 5.5826 0.378386942 5.5826"></polygon>
        <polygon id="path-5" points="0 0.0763494707 4.633 0.0763494707 4.633 9.39642914 0 9.39642914"></polygon>
    </defs>
    <g id="icons/color/positive/flexible" stroke="none" stroke-width="1" fill="none" fill-rule="evenodd">
        <g id="Group-18" transform="translate(21.000000, 11.000000)">
            <path d="M44.2719,29.8251 C44.2719,39.8951 36.1089,48.0591 26.0389,48.0591 C15.9679,48.0591 7.8049,39.8951 7.8049,29.8251 C7.8049,19.7551 15.9679,11.5921 26.0389,11.5921 C36.1089,11.5921 44.2719,19.7551 44.2719,29.8251" id="Fill-1" fill="#41BD00"></path>
            <polygon id="Fill-3" fill="#FFDB00" points="29.6225 72.0424 22.6435 72.0424 22.6435 38.8344 22.6435 5.6254 29.6225 5.6254 29.6225 38.8344"></polygon>
            <path d="M22.645,72.0424 L29.624,72.0424 L29.624,63.4574 L29.624,57.3454 C29.624,54.7884 29.331,42.4414 36.526,42.4414 C42.478,42.4414 47.649,42.4224 47.649,42.4224 L47.633,35.4584 L36.526,35.4584 C22.267,35.4584 22.645,54.1654 22.645,57.3454 L22.645,63.4574 L22.645,72.0424 Z" id="Fill-5" fill="#FFDB00"></path>
            <g id="Group-9" transform="translate(47.000000, 34.042400)">
                <mask id="mask-2" fill="white">
                    <use xlink:href="#path-1"></use>
                </mask>
                <g id="Clip-8"></g>
                <path d="M1.7914,0.8599 C1.7894,0.5779 2.1294,0.3479 2.5554,0.3439 L4.4764,0.32884947 C4.9114,0.3249 5.2674,0.5589 5.2664021,0.8469 L5.2254,9.1369 C5.2244,9.4219 4.8744,9.6519 4.4444,9.64892902 L2.6204,9.6379 C2.1934,9.6349 1.8494,9.4049 1.8474,9.1229 L1.8424,8.3879 L0.6484,8.3799 L0.6334,1.4159 L1.7944,1.3969 L1.7914,0.8599 Z" id="Fill-7" fill="#000000" mask="url(#mask-2)"></path>
            </g>
            <g id="Group-12" transform="translate(21.000000, 0.042400)">
                <mask id="mask-4" fill="white">
                    <use xlink:href="#path-3"></use>
                </mask>
                <g id="Clip-11"></g>
                <path d="M9.1674,4.4326 C9.4494,4.4346 9.6794,4.0946 9.6834,3.6686 L9.69845053,1.7476 C9.7024,1.3126 9.4684,0.9566 9.1804,0.957597898 L0.8904,0.9986 C0.6044,0.9996 0.3764,1.3496 0.378386942,1.7796 L0.3904,3.6036 C0.3924,4.0296 0.6224,4.3746 0.9044,4.3766 L1.6394,4.3816 L1.6464,5.5826 L8.6224,5.5826 L8.6424,4.4296 L9.1674,4.4326 Z" id="Fill-10" fill="#000000" mask="url(#mask-4)"></path>
            </g>
            <path d="M29.6225,72.0424 L22.6435,72.0424 L22.6435,45.2054 L22.6435,39.0934 C22.6435,36.5364 22.9355,24.1894 15.7415,24.1894 C9.7885,24.1894 4.6175,24.1704 4.6175,24.1704 L4.6335,17.2064 L15.7415,17.2064 C29.9995,17.2064 29.6225,35.9134 29.6225,39.0934 L29.6225,45.2054 L29.6225,72.0424 Z" id="Fill-13" fill="#FFDB00"></path>
            <g id="Group-17" transform="translate(0.000000, 16.042400)">
                <mask id="mask-6" fill="white">
                    <use xlink:href="#path-5"></use>
                </mask>
                <g id="Clip-16"></g>
                <path d="M3.475,0.6074 C3.477,0.3254 3.137,0.0954 2.711,0.0924 L0.79,0.0763494707 C0.355,0.0724 -0.001,0.3064 -2.10160471e-06,0.5954 L0.041,8.8854 C0.042,9.1704 0.392,9.3994 0.822,9.39642914 L2.647,9.3854 C3.073,9.3824 3.417,9.1524 3.419,8.8704 L3.424,8.1364 L4.618,8.1284 L4.633,1.1634 L3.472,1.1444 L3.475,0.6074 Z" id="Fill-15" fill="#000000" mask="url(#mask-6)"></path>
            </g>
        </g>
    </g>
</svg>