<?xml version="1.0" encoding="UTF-8"?>
<svg width="80px" height="65px" viewBox="0 0 80 65" version="1.1" xmlns="http://www.w3.org/2000/svg" xmlns:xlink="http://www.w3.org/1999/xlink">
    <title>icon/home/solar panel copy 3</title>
    <g id="UI-Kit" stroke="none" stroke-width="1" fill="none" fill-rule="evenodd">
        <g id="iconos-en-color" transform="translate(-518.000000, -213.000000)">
            <g id="icons/color/positive/gas" transform="translate(510.000000, 197.000000)">
                <g id="Group-12" stroke-width="1" transform="translate(47.500000, 48.000000) rotate(90.000000) translate(-47.500000, -48.000000) translate(14.500000, 8.000000)">
                    <path d="M47.2976377,1.77635684e-15 C49.0662084,1.77635684e-15 50.5,1.47433343 50.5,3.29272227 L50.5,3.29272227 L50.5,6.5 L52.5784359,6.5 C57.7823263,6.5 62,10.657115 62,15.7846261 L62,16.5 L64.6078934,16.5 C65.3772643,16.5 66,17.171 66,18 C66,18.829 65.3765219,19.5 64.6078934,19.5 L62,19.5 L62,58.5 L64.6078934,58.5 C65.3772643,58.5 66,59.171 66,60 C66,60.8282 65.3765219,61.5 64.6078934,61.5 L62,61.5 L62,62.2161171 C62,67.3436282 57.7823263,71.5 52.5784359,71.5 L49.9992618,71.5 L49.9992618,75.8810608 C49.9992618,77.8795427 48.4233644,79.5 46.4798376,79.5 L46.4798376,79.5 L31.2023623,79.5 C29.4337916,79.5 28,78.0256666 28,76.2072777 L28,76.2072777 L28,71.5 L24.6960888,71.5 C19.8930198,71.5 16,67.6637492 16,62.931048 L16,61.5 L13.3921066,61.5 C12.6229213,61.5 12,60.8282 12,60 C12,59.171 12.6229213,58.5 13.3921066,58.5 L16,58.5 L16,19.5 L13.3921066,19.5 C12.6229213,19.5 12,18.829 12,18 C12,17.171 12.6229213,16.5 13.3921066,16.5 L16,16.5 L16,15.0696952 C16,10.3371797 19.8930198,6.5 24.6960888,6.5 L28.5,6.5 L28.5007382,3.61893918 C28.5007382,1.6849245 29.9766047,0.104939001 31.8332674,0.0050169548 L32.0201624,0 Z" id="Combined-Shape" fill="#78BE21"></path>
                    <g id="Group" transform="translate(8.500000, 33.250000) rotate(-90.000000) translate(-8.500000, -33.250000) translate(-4.000000, 25.250000)" fill="#000000">
                        <polygon id="Fill-5" points="4.5 15.5 20.5 15.5 20.5 5.5 4.5 5.5"></polygon>
                        <path d="M2.09793038,0.5 C1.21532895,0.5 0.5,1.24951963 0.5,2.17430689 L0.5,3.82555586 C0.5,4.75048037 1.21532895,5.5 2.09793038,5.5 L22.9020696,5.5 C23.7846711,5.5 24.5,4.75048037 24.5,3.82555586 L24.5,2.17430689 C24.5,1.24951963 23.7846711,0.5 22.9020696,0.5 L2.09793038,0.5 Z" id="Fill-7"></path>
                    </g>
                </g>
                <path d="M55,56.1525369 C55,60.2107366 51.641791,63.5 47.5002969,63.5 C43.358011,63.5 40,60.2107366 40,56.1525369 C40,52.0943372 47.5002969,44.5 47.5002969,44.5 C47.5002969,44.5 55,52.0951129 55,56.1525369" id="Fill-11" fill="#F8DA2A"></path>
            </g>
        </g>
    </g>
</svg>