<?xml version="1.0" encoding="UTF-8"?>
<svg width="80px" height="79px" viewBox="0 0 80 79" version="1.1" xmlns="http://www.w3.org/2000/svg" xmlns:xlink="http://www.w3.org/1999/xlink">
    <title>icon/home/solar panel copy</title>
    <defs>
        <polygon id="path-1" points="0 79 80 79 80 0 0 0"></polygon>
    </defs>
    <g id="UI-Kit" stroke="none" stroke-width="1" fill="none" fill-rule="evenodd">
        <g id="iconos-sobre-verde" transform="translate(-156.000000, -205.000000)">
            <g id="icons/color/negative/heater" transform="translate(148.000000, 197.000000)">
                <g id="Group-16" transform="translate(8.000000, 8.000000)">
                    <path d="M72.0766925,8.22217166 C72.046715,7.54063894 71.805396,7 71.5011242,7 C71.1961029,7 70.9555333,7.54063894 70.924057,8.22217166 L67.790657,7.49394739 C67.3544841,7.49394739 67,7.8814053 67,8.35651224 C67,8.83080004 67.3544841,9.21989624 67.790657,9.21989624 L70.4983762,9.21989624 C69.7579316,9.80558842 69.2430677,11.0081005 69.2430677,12.4137617 C69.2430677,14.3928279 70.2555583,16 71.5011242,16 C72.7474394,16 73.7576817,14.3928279 73.7576817,12.4137617 C73.7576817,11.0081005 73.2443168,9.80558842 72.5046215,9.21989624 L75.2123407,9.21989624 C75.6462653,9.21989624 76,8.83080004 76,8.35651224 C76,7.8814053 75.6462653,7.49394739 75.2123407,7.49394739 L72.0766925,8.22217166 Z" id="Fill-1" fill="#FFFFFF"></path>
                    <mask id="mask-2" fill="white">
                        <use xlink:href="#path-1"></use>
                    </mask>
                    <g id="Clip-4"></g>
                    <polygon id="Fill-3" fill="#000000" mask="url(#mask-2)" points="68 13 75 13 75 12 68 12"></polygon>
                    <polygon id="Fill-5" fill="#FFFFFF" mask="url(#mask-2)" points="0 18 78 18 78 13 0 13"></polygon>
                    <polygon id="Fill-6" fill="#000000" mask="url(#mask-2)" points="77 18 80 18 80 13 77 13"></polygon>
                    <path d="M75.2123407,62.4949017 L72.0766925,63.2225055 C72.046715,62.5383285 71.805396,62 71.5011242,62 C71.1961029,62 70.9555333,62.5383285 70.924057,63.2225055 L67.790657,62.4949017 C67.3544841,62.4949017 67,62.8824654 67,63.3568827 C67,63.8321194 67.3544841,64.2180444 67.790657,64.2180444 L70.4983762,64.2180444 C69.7579316,64.8038966 69.2430677,66.0100146 69.2430677,67.414421 C69.2430677,69.3940277 70.2555583,71 71.5011242,71 C72.7474394,71 73.7576817,69.3940277 73.7576817,67.414421 C73.7576817,66.0100146 73.2443168,64.8038966 72.5046215,64.2180444 L75.2123407,64.2180444 C75.6462653,64.2180444 76,63.8321194 76,63.3568827 C76,62.8824654 75.6462653,62.4949017 75.2123407,62.4949017" id="Fill-7" fill="#FFFFFF" mask="url(#mask-2)"></path>
                    <polygon id="Fill-8" fill="#000000" mask="url(#mask-2)" points="68 68 75 68 75 67 68 67"></polygon>
                    <polygon id="Fill-9" fill="#FFFFFF" mask="url(#mask-2)" points="0 73 78 73 78 68 0 68"></polygon>
                    <polygon id="Fill-10" fill="#000000" mask="url(#mask-2)" points="77 73 80 73 80 68 77 68"></polygon>
                    <path d="M5.03444341,0 L0,0 L0,0.7544957 L0,2.32759969 L5.03444341,2.32759969 L5.03444341,3.95387021 L0,3.95387021 L0,5.58326818 L5.03444341,5.58326818 L5.03444341,6.83659109 L0,6.83659109 L0,8.55981235 L5.03444341,8.55981235 L5.03444341,9.14308053 L2.52741924,9.14308053 C1.13192612,9.14308053 0,10.2713057 0,11.6606724 L0,70.2009382 L0,72.3885848 L0,76.4816263 C0,77.8725567 1.13192612,79 2.52741924,79 L8.47414961,79 C9.87121158,79 11,77.8725567 11,76.4816263 L11,63.853792 L11,61.6669273 L11,11.6606724 C11,10.2713057 9.87121158,9.14308053 8.47414961,9.14308053 L5.96712544,9.14308053 L5.96712544,8.55981235 L11,8.55981235 L11,6.83659109 L5.96712544,6.83659109 L5.96712544,5.58326818 L11,5.58326818 L11,3.95387021 L5.96712544,3.95387021 L5.96712544,2.32759969 L11,2.32759969 L11,0.7544957 L11,0 L5.96712544,0 L5.03444341,0 Z" id="Fill-11" fill="#F9DF2F" mask="url(#mask-2)"></path>
                    <path d="M18.0337255,0 L13,0 L13,0.7544957 L13,2.32759969 L18.0337255,2.32759969 L18.0337255,3.95387021 L13,3.95387021 L13,5.58326818 L18.0337255,5.58326818 L18.0337255,6.83659109 L13,6.83659109 L13,8.55981235 L18.0337255,8.55981235 L18.0337255,9.14308053 L15.5247059,9.14308053 C14.1301961,9.14308053 13,10.2713057 13,11.6606724 L13,54.4745895 L13,60.3549648 L13,76.4816263 C13,77.8725567 14.1301961,79 15.5247059,79 L21.4729412,79 C22.8698039,79 24,77.8725567 24,76.4816263 L24,51.8217357 L24,45.9413604 L24,11.6606724 C24,10.2713057 22.8698039,9.14308053 21.4729412,9.14308053 L18.9662745,9.14308053 L18.9662745,8.55981235 L24,8.55981235 L24,6.83659109 L18.9662745,6.83659109 L18.9662745,5.58326818 L24,5.58326818 L24,3.95387021 L18.9662745,3.95387021 L18.9662745,2.32759969 L24,2.32759969 L24,0.7544957 L24,0 L18.9662745,0 L18.0337255,0 Z" id="Fill-12" fill="#F9DF2F" mask="url(#mask-2)"></path>
                    <path d="M30.0344434,0 L25,0 L25,0.7544957 L25,2.32759969 L30.0344434,2.32759969 L30.0344434,3.95387021 L25,3.95387021 L25,5.58326818 L30.0344434,5.58326818 L30.0344434,6.83659109 L25,6.83659109 L25,8.55981235 L30.0344434,8.55981235 L30.0344434,9.14308053 L27.5266348,9.14308053 C26.1303573,9.14308053 25,10.2713057 25,11.6606724 L25,50.5066458 L25,56.0883503 L25,76.4816263 C25,77.8725567 26.1303573,79 27.5266348,79 L33.4765029,79 C34.8696427,79 36,77.8725567 36,76.4816263 L36,47.5551212 L36,41.9741986 L36,11.6606724 C36,10.2713057 34.8696427,9.14308053 33.4765029,9.14308053 L30.9655566,9.14308053 L30.9655566,8.55981235 L36,8.55981235 L36,6.83659109 L30.9655566,6.83659109 L30.9655566,5.58326818 L36,5.58326818 L36,3.95387021 L30.9655566,3.95387021 L30.9655566,2.32759969 L36,2.32759969 L36,0.7544957 L36,0 L30.9655566,0 L30.0344434,0 Z" id="Fill-13" fill="#F9DF2F" mask="url(#mask-2)"></path>
                    <path d="M43.0325157,0 L38,0 L38,0.7544957 L38,2.32759969 L43.0325157,2.32759969 L43.0325157,3.95387021 L38,3.95387021 L38,5.58326818 L43.0325157,5.58326818 L43.0325157,6.83659109 L38,6.83659109 L38,8.55981235 L43.0325157,8.55981235 L43.0325157,9.14308053 L40.5248859,9.14308053 C39.1302767,9.14308053 38,10.2713057 38,11.6606724 L38,40.6591087 L38,76.4816263 C38,77.8725567 39.1302767,79 40.5248859,79 L46.4758985,79 C47.8697233,79 49,77.8725567 49,76.4816263 L49,32.1258796 L49,11.6606724 C49,10.2713057 47.8697233,9.14308053 46.4758985,9.14308053 L43.9659156,9.14308053 L43.9659156,8.55981235 L49,8.55981235 L49,6.83659109 L43.9659156,6.83659109 L43.9659156,5.58326818 L49,5.58326818 L49,3.95387021 L43.9659156,3.95387021 L43.9659156,2.32759969 L49,2.32759969 L49,0.7544957 L49,0 L43.9659156,0 L43.0325157,0 Z" id="Fill-14" fill="#F9DF2F" mask="url(#mask-2)"></path>
                    <path d="M56.9662745,0 L56.0337255,0 L51,0 L51,0.7544957 L51,2.32759969 L56.0337255,2.32759969 L56.0337255,3.95387021 L51,3.95387021 L51,5.58326818 L56.0337255,5.58326818 L56.0337255,6.83659109 L51,6.83659109 L51,8.55981235 L56.0337255,8.55981235 L56.0337255,9.14308053 L53.5247059,9.14308053 C52.1301961,9.14308053 51,10.2713057 51,11.6606724 L51,30.8139171 L51,76.4816263 C51,77.8725567 52.1301961,79 53.5247059,79 L59.4752941,79 C60.8698039,79 62,77.8725567 62,76.4816263 L62,22.280688 L62,11.6606724 C62,10.2713057 60.8698039,9.14308053 59.4752941,9.14308053 L56.9662745,9.14308053 L56.9662745,8.55981235 L62,8.55981235 L62,6.83659109 L56.9662745,6.83659109 L56.9662745,5.58326818 L62,5.58326818 L62,3.95387021 L56.9662745,3.95387021 L56.9662745,2.32759969 L62,2.32759969 L62,0.7544957 L62,0 L56.9662745,0 Z" id="Fill-15" fill="#F9DF2F" mask="url(#mask-2)"></path>
                </g>
            </g>
        </g>
    </g>
</svg>