<?xml version="1.0" encoding="UTF-8"?>
<svg width="95px" height="95px" viewBox="0 0 95 95" version="1.1" xmlns="http://www.w3.org/2000/svg" xmlns:xlink="http://www.w3.org/1999/xlink">
    <title>icons/color/positive/rentable</title>
    <defs>
        <polygon id="path-1" points="0 0.479478368 56.41 0.479478368 56.41 71 0 71"></polygon>
    </defs>
    <g id="icons/color/positive/rentable" stroke="none" stroke-width="1" fill="none" fill-rule="evenodd">
        <g id="Group-18" transform="translate(19.000000, 11.000000)">
            <g id="Group-3" transform="translate(0.000000, 0.520600)">
                <mask id="mask-2" fill="white">
                    <use xlink:href="#path-1"></use>
                </mask>
                <g id="Clip-2"></g>
                <path d="M30.343,70.9895 C24.241,71.1405 18.552,69.6705 13.335,67.0285 C8.114,64.3885 3.676,60.6745 0,56.5355 C3.431,53.0735 6.911,49.0125 10.422,44.6115 C13.623,47.4905 17.02,49.7085 20.602,51.0555 C24.184,52.4105 27.749,53.0765 31.283,53.0155 C33.106,52.9845 34.414,52.6805 35.211,52.1365 C36.007,51.5945 36.405,50.8735 36.405,49.9755 L36.405,49.7835 C36.405,48.8215 35.821,48.0435 34.656,47.4275 C33.49,46.8115 31.311,46.1775 28.12,45.4635 C24.756,44.6845 21.551,43.7255 18.514,42.6395 C15.477,41.5545 12.823,40.1905 10.548,38.6115 C8.272,37.0335 6.473,35.1365 5.138,32.9435 C3.805,30.7465 3.143,28.0755 3.142,24.8105 L3.142,24.6355 C3.142,21.7215 3.68,18.9485 4.763,16.2285 C5.847,13.5135 7.434,10.9735 9.537,8.6545 C11.64,6.3405 14.261,4.3405 17.408,2.8375 C20.554,1.3365 24.186,0.4745 28.29,0.479478368 C34.107,0.4825 39.185,1.8335 43.499,4.0165 C47.813,6.1985 51.647,9.2545 55.008,12.7655 C51.867,16.5895 48.688,20.9605 45.484,25.6525 C42.672,23.2655 39.687,21.4115 36.533,20.2255 C33.379,19.0385 30.399,18.4435 27.607,18.4545 C26.123,18.4595 25.028,18.7385 24.315,19.2695 C23.602,19.8015 23.247,20.4885 23.247,21.3255 L23.247,21.5195 C23.248,21.9705 23.361,22.3885 23.59,22.7715 C23.817,23.1545 24.23,23.5195 24.828,23.8665 C25.426,24.2145 26.239,24.5475 27.265,24.8675 C28.29,25.1875 29.601,25.5125 31.197,25.8515 C35.015,26.6625 38.483,27.6905 41.593,28.8525 C44.701,30.0185 47.354,31.4525 49.559,33.0875 C51.762,34.7255 53.448,36.5905 54.635,38.6835 C55.822,40.7835 56.41,43.2715 56.41,46.2675 L56.41,46.4385 C56.41,49.5475 55.806,52.4275 54.594,55.1905 C53.381,57.9515 51.664,60.5025 49.433,62.7805 C47.2,65.0555 44.463,67.0335 41.211,68.5225 C37.959,70.0105 34.331,70.8965 30.343,70.9895" id="Fill-1" fill="#FFDB00" mask="url(#mask-2)"></path>
            </g>
            <path d="M28.4275,8.2337 C28.4275,8.2337 11.7525,24.0737 11.8425,37.8027 C11.9555,55.0687 29.1695,64.2997 29.1695,64.2997 C29.1695,64.2997 46.2605,54.8437 46.1475,37.5787 C46.0505,22.7507 28.4275,8.2337 28.4275,8.2337" id="Fill-4" fill="#41BD00"></path>
            <line x1="29.8176" y1="24.3265" x2="28.9886" y2="64.0325" id="Stroke-6" stroke="#FFDB00" stroke-width="1.136" stroke-linecap="round"></line>
            <line x1="29.4328" y1="40.6087" x2="17.6388" y2="28.5397" id="Stroke-8" stroke="#FFDB00" stroke-width="1.136" stroke-linecap="round"></line>
            <line x1="33.0969" y1="20.9632" x2="29.6669" y2="24.5952" id="Stroke-10" stroke="#FFDB00" stroke-width="1.136" stroke-linecap="round"></line>
            <line x1="38.9753" y1="39.7933" x2="30.0993" y2="45.6703" id="Stroke-12" stroke="#FFDB00" stroke-width="1.136" stroke-linecap="round"></line>
            <line x1="26.8054" y1="19.3997" x2="29.6054" y2="24.5577" id="Stroke-14" stroke="#FFDB00" stroke-width="1.136" stroke-linecap="round"></line>
            <line x1="29.3254" y1="56.8128" x2="20.8724" y2="50.6398" id="Stroke-16" stroke="#FFDB00" stroke-width="1.136" stroke-linecap="round"></line>
        </g>
    </g>
</svg>