<?xml version="1.0" encoding="UTF-8"?>
<svg width="95px" height="95px" viewBox="0 0 95 95" version="1.1" xmlns="http://www.w3.org/2000/svg" xmlns:xlink="http://www.w3.org/1999/xlink">
    <title>icons/color/positive/respetuosa</title>
    <defs>
        <polygon id="path-1" points="0.5929 0.898 29.9049 0.898 29.9049 45.1719 0.5929 45.1719"></polygon>
        <polygon id="path-3" points="0.0007 0.7284 78.4077656 0.7284 78.4077656 41 0.0007 41"></polygon>
    </defs>
    <g id="icons/color/positive/respetuosa" stroke="none" stroke-width="1" fill="none" fill-rule="evenodd">
        <g id="Group-15" transform="translate(8.000000, 5.000000)">
            <g id="Group-3" transform="translate(28.000000, 0.101800)">
                <mask id="mask-2" fill="white">
                    <use xlink:href="#path-1"></use>
                </mask>
                <g id="Clip-2"></g>
                <path d="M14.9289,0.8979 C14.9289,0.8979 0.5929,13.3189 0.5929,24.1599 C0.5929,37.7939 15.2489,45.1719 15.2489,45.1719 C15.2489,45.1719 29.9049,37.7939 29.9049,24.1599 C29.9049,12.4509 14.9289,0.8979 14.9289,0.8979" id="Fill-1" fill="#76BC21" mask="url(#mask-2)"></path>
            </g>
            <line x1="43.3762" y1="20.5671" x2="43.3762" y2="45.0941" id="Stroke-4" stroke="#F8DA2A" stroke-linecap="round"></line>
            <line x1="48.6311" y1="24.6501" x2="43.5801" y2="29.6061" id="Stroke-6" stroke="#F8DA2A" stroke-linecap="round"></line>
            <line x1="43.2492" y1="24.4523" x2="39.9872" y2="20.3963" id="Stroke-8" stroke="#F8DA2A" stroke-linecap="round"></line>
            <line x1="43.3762" y1="35.4353" x2="40.6372" y2="32.7373" id="Stroke-10" stroke="#F8DA2A" stroke-linecap="round"></line>
            <g id="Group-14" transform="translate(0.000000, 43.101800)">
                <mask id="mask-4" fill="white">
                    <use xlink:href="#path-3"></use>
                </mask>
                <g id="Clip-13"></g>
                <path d="M78.1897,1.3364 C77.9417,0.9574 77.5197,0.7284 77.0657,0.7284 L76.2487,0.7284 C72.6177,0.7284 69.1477,2.4614 67.0277,5.2934 L58.1467,15.5254 C58.1597,15.7794 58.4697,21.7694 58.4697,21.8224 C58.4697,25.1854 55.7337,27.9214 52.3707,27.9214 L34.6537,27.9214 C32.3507,27.9214 30.0127,28.3604 27.8897,29.0184 C27.0647,29.2744 26.4327,26.7384 27.0477,26.4684 C29.0707,25.5834 32.0607,25.2364 34.6537,25.2364 L52.3707,25.2364 C56.6637,25.2364 56.0907,19.7764 56.0907,17.8934 C55.0147,16.1564 53.0907,14.9984 50.9027,14.9984 L38.2047,14.9984 C35.3707,14.9984 32.6417,14.2354 30.3137,12.7924 C27.1077,10.8024 24.6447,9.5494 18.2237,8.1234 C6.8077,5.5824 0.5807,13.9294 0.2687,14.3464 C0.0937,14.5784 0.0007,14.8604 0.0007,15.1514 L0.0007,28.2324 C0.0007,28.9214 0.5227,29.4994 1.2097,29.5674 L5.3787,29.9844 C10.3647,30.4824 13.9747,31.7484 18.5687,33.7464 L28.5597,39.2664 C31.2147,40.4214 34.0837,41.0004 36.9527,41.0004 C39.6107,41.0004 42.2697,40.5034 44.7607,39.5074 L54.8847,35.4584 L56.6257,35.0244 C61.8367,33.7204 66.2407,30.0064 68.4037,25.0904 L78.2937,2.6104 C78.4767,2.1954 78.4377,1.7154 78.1897,1.3364" id="Fill-12" fill="#F8DA2A" mask="url(#mask-4)"></path>
            </g>
        </g>
    </g>
</svg>