<?xml version="1.0" encoding="UTF-8"?>
<svg width="95px" height="95px" viewBox="0 0 95 95" version="1.1" xmlns="http://www.w3.org/2000/svg" xmlns:xlink="http://www.w3.org/1999/xlink">
    <title>icons/color/positive/segura</title>
    <defs>
        <polygon id="path-1" points="0.0001 0.777 60.522 0.777 60.522 71.9999 0.0001 71.9999"></polygon>
    </defs>
    <g id="icons/color/positive/segura" stroke="none" stroke-width="1" fill="none" fill-rule="evenodd">
        <g id="Group-20" transform="translate(17.000000, 11.000000)">
            <g id="Group-3" transform="translate(0.000000, 0.223000)">
                <mask id="mask-2" fill="white">
                    <use xlink:href="#path-1"></use>
                </mask>
                <g id="Clip-2"></g>
                <path d="M60.5221,19.6169 C60.5221,19.6169 58.0701,29.7239 55.6861,36.3069 C49.3551,53.7909 37.0921,71.9999 30.3201,71.9999 C23.8591,71.9999 11.0961,53.2449 4.7661,35.7609 C2.3821,29.1779 0.0001,19.0709 0.0001,19.0709 L30.3161,0.7769 L60.5221,19.6169 Z" id="Fill-1" fill="#FFDB00" mask="url(#mask-2)"></path>
            </g>
            <path d="M35.1451,45.2774 C35.7391,45.2774 36.2861,44.9324 36.5551,44.3804 C37.5301,42.3784 39.1931,40.5554 39.1931,40.5554 C44.1261,35.4074 44.1261,27.0614 39.1941,21.9144 C34.2641,16.7714 26.2561,16.7714 21.3281,21.9144 C16.3951,27.0614 16.3951,35.4074 21.3281,40.5554 C21.3281,40.5554 22.9991,42.3794 23.9761,44.3814 C24.2461,44.9334 24.7921,45.2774 25.3861,45.2774 L35.1451,45.2774 Z" id="Fill-4" fill="#41BD00"></path>
            <path d="M25.4362,49.0421 L35.0852,49.0421 C35.5802,49.0421 35.9792,48.6421 35.9792,48.1481 C35.9792,47.6541 35.5802,47.2541 35.0852,47.2541 L25.4362,47.2541 C24.9422,47.2541 24.5412,47.6541 24.5412,48.1481 C24.5412,48.6421 24.9422,49.0421 25.4362,49.0421" id="Fill-6" fill="#41BD00"></path>
            <path d="M25.4362,52.0748 L35.0852,52.0748 C35.5802,52.0748 35.9792,51.6748 35.9792,51.1808 C35.9792,50.6868 35.5802,50.2868 35.0852,50.2868 L25.4362,50.2868 C24.9422,50.2868 24.5412,50.6868 24.5412,51.1808 C24.5412,51.6748 24.9422,52.0748 25.4362,52.0748" id="Fill-8" fill="#41BD00"></path>
            <path d="M27.8746,55.1661 L32.3506,55.1661 C32.8446,55.1661 33.2446,54.7661 33.2446,54.2721 C33.2446,53.7781 32.8446,53.3781 32.3506,53.3781 L27.8746,53.3781 C27.3816,53.3781 26.9806,53.7781 26.9806,54.2721 C26.9806,54.7661 27.3816,55.1661 27.8746,55.1661" id="Fill-10" fill="#000000"></path>
            <polygon id="Fill-12" fill="#000000" points="28.9772 33.0416 28.9762 33.0416 28.9752 33.0416"></polygon>
            <path d="M27.0006,33.0558 L26.9976,33.0558 L27.0006,33.0558 Z" id="Fill-14" fill="#000000"></path>
            <path d="M26.9674,33.0499 L26.9974,33.0549 C27.0724,33.0639 27.1464,33.0679 27.2154,33.0679 C27.4944,33.0689 27.7554,33.0009 27.9774,32.8799 C28.0484,32.8419 28.1074,32.7899 28.1694,32.7419 C28.4014,32.8969 28.6714,33.0079 28.9764,33.0419 C29.0444,33.0499 29.1104,33.0529 29.1704,33.0529 C29.4814,33.0539 29.7684,32.9559 29.9954,32.7999 C30.0714,32.7479 30.1344,32.6839 30.1984,32.6229 C30.4554,32.7929 30.7624,32.9079 31.1074,32.9239 L31.1124,32.9239 L31.1944,32.9259 C31.4794,32.9259 31.7454,32.8529 31.9694,32.7259 C32.0364,32.6879 32.0924,32.6379 32.1524,32.5919 C32.2094,32.6349 32.2624,32.6829 32.3264,32.7179 C32.5474,32.8379 32.8084,32.9009 33.0854,32.9039 L33.0854,32.9049 L33.1084,32.9059 L33.1104,32.9059 L33.1134,32.9059 L33.1184,32.9059 L33.1244,32.9059 C33.2094,32.9059 33.2904,32.8959 33.3714,32.8839 L31.2684,45.2779 L32.6824,45.2779 L35.0434,31.3849 C35.0944,31.2479 35.1454,31.0979 35.1734,30.9249 L35.1744,30.9249 L35.1744,30.9199 L35.1754,30.9149 C35.1824,30.8699 35.1874251,30.8249 35.1874251,30.7809 C35.1894,30.5429 35.0714,30.3299 34.9214,30.2029 C34.7704,30.0749 34.5904,30.0069 34.3934,30.0058826 C34.2504,30.0049 34.0884,30.0469 33.9504,30.1549 C33.8124,30.2619 33.7184,30.4319 33.6904,30.6009 L33.6904,30.6019 C33.6534,30.8199 33.5394,31.0179 33.4054,31.1509 C33.2734,31.2869 33.1244,31.3389 33.0734,31.3339 L33.0124,31.2999 C32.9794,31.2599 32.9154,31.1289 32.9044,30.8699 C32.8994,30.6539 32.7904,30.4419 32.6374,30.3199 C32.4844,30.1939 32.3064,30.1419 32.1334,30.1409 C31.9664,30.1419 31.7894,30.1909 31.6374,30.3179 C31.4834,30.4419 31.3804,30.6609 31.3844,30.8739 L31.3854,30.9059 L31.3864,30.9379 C31.3844,31.1249 31.3294,31.2229 31.2764,31.2819 C31.2204,31.3419 31.1554,31.3639 31.1024,31.3639 C31.0524,31.3629 31.0174,31.3499 30.9784,31.3099 C30.9404,31.2699 30.8884,31.1849 30.8794,30.9979 L30.8794,30.9949 C30.8734,30.7839 30.7724,30.5739 30.6204,30.4479 C30.4704,30.3189 30.2904,30.2629 30.1154,30.2629 C29.9424,30.2629 29.7614,30.3189 29.6114,30.4489 C29.4584,30.5769 29.3594,30.7889 29.3564,30.9999 L29.3564,30.9989 C29.3474,31.2169 29.2834,31.3369 29.2284,31.3989 C29.1724,31.4609 29.1224,31.4749 29.0814,31.4759 C29.0404,31.4739 29.0044,31.4639 28.9564,31.4099 C28.9104,31.3569 28.8524,31.2449 28.8504,31.0289 L28.8504,31.0199 L28.8504,31.0149 L28.8484,30.9699 C28.8284,30.7579 28.7184,30.5619 28.5694,30.4429 C28.4194,30.3219 28.2434,30.2659 28.0684,30.2659 C27.8974,30.2659 27.7134,30.3209 27.5624,30.4569 C27.4094,30.5909 27.3214,30.8089 27.3254,31.0149 L27.3284,31.0679 C27.3354,31.1239 27.3384,31.1879 27.3384,31.2459 C27.3384,31.3909 27.3034,31.4939 27.2844,31.5149 L27.2654,31.5319 C27.2564,31.5369 27.2324,31.5479 27.1684,31.5479 L27.1564,31.5479 C27.0444,31.5419 26.9504,31.4939 26.8404,31.3739 C26.7374,31.2579 26.6474,31.0769 26.5994,30.9009 L26.5364,30.5259 C26.5164,30.4039 26.4464,30.2969 26.3454,30.2279 L26.2804,30.2019 C26.1264,30.0749 25.9424,30.0189 25.7634,30.0179 C25.6054,30.0179 25.4344,30.0619 25.2834,30.1849 C25.1324,30.3049 25.0334,30.5199 25.0384,30.7219 L25.0434,30.8159 C25.0824,31.1579 25.1814,31.4989 25.3384,31.8149 L27.6254,45.2779 L29.0434,45.2779 L26.9674,33.0499 Z" id="Fill-16" fill="#000000"></path>
            <polygon id="Fill-18" fill="#000000" points="25.0436 30.817 25.0436 30.816 25.0436 30.815"></polygon>
        </g>
    </g>
</svg>