<?xml version="1.0" encoding="UTF-8"?>
<svg width="79px" height="95px" viewBox="0 0 79 95" version="1.1" xmlns="http://www.w3.org/2000/svg" xmlns:xlink="http://www.w3.org/1999/xlink">
    <title>icon/home/solar panel copy 2</title>
    <defs>
        <polygon id="path-1" points="0 0.280929687 78.9197939 0.280929687 78.9197939 76.895268 0 76.895268"></polygon>
    </defs>
    <g id="UI-Kit" stroke="none" stroke-width="1" fill="none" fill-rule="evenodd">
        <g id="iconos-en-color" transform="translate(-331.000000, -197.000000)">
            <g id="icons/color/positive/solar" transform="translate(323.000000, 197.000000)">
                <g id="Group-8" transform="translate(8.000000, 0.000000)">
                    <polygon id="Fill-1" fill="#000000" points="35.8758805 72 35.8758805 92.2321814 29 92.2321814 29 95 51 95 51 92.2321814 44.1247065 92.2321814 44.1247065 72"></polygon>
                    <g id="Group-7">
                        <path d="M6.25842824,74.4774078 C4.14291679,74.4774078 2.42481756,72.7695719 2.42481756,70.6719234 L2.42481756,6.50445469 C2.42481756,4.40800937 4.14291679,2.69897031 6.25842824,2.69897031 L72.6588328,2.69897031 C74.7755504,2.69897031 76.4972679,4.40800937 76.4972679,6.50445469 L76.4972679,70.6719234 C76.4972679,72.7695719 74.7755504,74.4774078 72.6588328,74.4774078 L6.25842824,74.4774078 Z" id="Fill-2" fill="#F8DA2A"></path>
                        <g id="Group-6">
                            <mask id="mask-2" fill="white">
                                <use xlink:href="#path-1"></use>
                            </mask>
                            <g id="Clip-5"></g>
                            <path d="M74.0730534,17.7995727 L60.2962977,17.7995727 L60.2962977,5.11743203 L72.6588931,5.11743203 C73.4410534,5.11743203 74.0730534,5.73764297 74.0730534,6.50463516 L74.0730534,17.7995727 Z M60.2962977,37.5314242 L74.0730534,37.5314242 L74.0730534,19.915268 L60.2962977,19.915268 L60.2962977,37.5314242 Z M60.2962977,57.2614711 L74.0730534,57.2614711 L74.0730534,39.6441117 L60.2962977,39.6441117 L60.2962977,57.2614711 Z M74.0730534,70.6721039 C74.0730534,71.4384945 73.4410534,72.0587055 72.6588931,72.0587055 L60.2962977,72.0587055 L60.2962977,59.3741586 L74.0730534,59.3741586 L74.0730534,70.6721039 Z M40.5179542,72.0587055 L58.177771,72.0587055 L58.177771,59.3741586 L40.5179542,59.3741586 L40.5179542,72.0587055 Z M20.7402137,72.0587055 L38.4012366,72.0587055 L38.4012366,59.3741586 L20.7402137,59.3741586 L20.7402137,72.0587055 Z M6.25848855,72.0587055 C5.47934351,72.0587055 4.84854962,71.4384945 4.84854962,70.6721039 L4.84854962,59.3741586 L18.6228931,59.3741586 L18.6228931,72.0587055 L6.25848855,72.0587055 Z M4.84854962,57.2614711 L18.6228931,57.2614711 L18.6228931,39.6441117 L4.84854962,39.6441117 L4.84854962,57.2614711 Z M4.84854962,37.5314242 L18.6228931,37.5314242 L18.6228931,19.915268 L4.84854962,19.915268 L4.84854962,37.5314242 Z M4.84854962,6.50463516 C4.84854962,5.73764297 5.47934351,5.11743203 6.25848855,5.11743203 L18.6228931,5.11743203 L18.6228931,17.7995727 L4.84854962,17.7995727 L4.84854962,6.50463516 Z M20.7408168,17.7995727 L38.4018397,17.7995727 L38.4018397,5.11743203 L20.7408168,5.11743203 L20.7408168,17.7995727 Z M40.5179542,37.5314242 L58.177771,37.5314242 L58.177771,19.915268 L40.5179542,19.915268 L40.5179542,37.5314242 Z M40.5179542,57.2614711 L58.177771,57.2614711 L58.177771,39.6441117 L40.5179542,39.6441117 L40.5179542,57.2614711 Z M20.7402137,37.5314242 L38.4012366,37.5314242 L38.4012366,19.915268 L20.7402137,19.915268 L20.7402137,37.5314242 Z M20.7408168,57.2614711 L38.4018397,57.2614711 L38.4018397,39.6441117 L20.7408168,39.6441117 L20.7408168,57.2614711 Z M40.5185573,17.7995727 L58.178374,17.7995727 L58.178374,5.11743203 L40.5185573,5.11743203 L40.5185573,17.7995727 Z M72.6588931,0.280869531 L6.25848855,0.280869531 C2.80721374,0.280869531 0,3.07272109 0,6.50463516 L0,70.6721039 C0,74.104018 2.80721374,76.895268 6.25848855,76.895268 L72.6588931,76.895268 C76.1119771,76.895268 78.9197939,74.104018 78.9197939,70.6721039 L78.9197939,6.50463516 C78.9197939,3.07272109 76.1119771,0.280869531 72.6588931,0.280869531 L72.6588931,0.280869531 Z" id="Fill-4" fill="#78BE21" mask="url(#mask-2)"></path>
                        </g>
                    </g>
                </g>
            </g>
        </g>
    </g>
</svg>