<?xml version="1.0" encoding="UTF-8"?>
<svg width="80px" height="72px" viewBox="0 0 80 72" version="1.1" xmlns="http://www.w3.org/2000/svg" xmlns:xlink="http://www.w3.org/1999/xlink">
    <title>icon/home/solar panel copy 5</title>
    <defs>
        <polygon id="path-1" points="0 0.611 79.9999 0.611 79.9999 71.9997 0 71.9997"></polygon>
    </defs>
    <g id="UI-Kit" stroke="none" stroke-width="1" fill="none" fill-rule="evenodd">
        <g id="iconos-en-color" transform="translate(-892.000000, -209.000000)">
            <g id="icons/color/positive/stove" transform="translate(884.000000, 197.000000)">
                <g id="Group-58" transform="translate(8.000000, 11.000000)">
                    <g id="Group-3" transform="translate(0.000000, 0.389300)">
                        <mask id="mask-2" fill="white">
                            <use xlink:href="#path-1"></use>
                        </mask>
                        <g id="Clip-2"></g>
                        <path d="M5.8829,4.6437 C4.8629,4.6437 4.0329,5.4737 4.0329,6.4937 L4.0329,66.1157 C4.0329,67.1367 4.8629,67.9667 5.8829,67.9667 L74.1159,67.9667 C75.1369,67.9667 75.9669,67.1367 75.9669,66.1157 L75.9669,6.4937 C75.9669,5.4737 75.1369,4.6437 74.1159,4.6437 L5.8829,4.6437 Z M74.1159,71.9997 L5.8829,71.9997 C2.6399,71.9997 -0.0001,69.3607 -0.0001,66.1157 L-0.0001,6.4937 C-0.0001,3.2497 2.6399,0.6107 5.8829,0.6107 L74.1159,0.6107 C77.3609,0.6107 79.9999,3.2497 79.9999,6.4937 L79.9999,66.1157 C79.9999,69.3607 77.3609,71.9997 74.1159,71.9997 L74.1159,71.9997 Z" id="Fill-1" fill="#000000" mask="url(#mask-2)"></path>
                    </g>
                    <path d="M24.13,38.0389 L2.017,38.0389 C1.275,38.0389 0.672,37.4369 0.672,36.6949 C0.672,35.9519 1.275,35.3509 2.017,35.3509 L24.13,35.3509 C24.872,35.3509 25.475,35.9519 25.475,36.6949 C25.475,37.4369 24.872,38.0389 24.13,38.0389" id="Fill-4" fill="#000000"></path>
                    <path d="M78.4024,38.0389 L56.2894,38.0389 C55.5464,38.0389 54.9444,37.4369 54.9444,36.6949 C54.9444,35.9519 55.5464,35.3509 56.2894,35.3509 L78.4024,35.3509 C79.1444,35.3509 79.7474,35.9519 79.7474,36.6949 C79.7474,37.4369 79.1444,38.0389 78.4024,38.0389" id="Fill-6" fill="#000000"></path>
                    <path d="M40.2091,21.9598 C39.4671,21.9598 38.8651,21.3578 38.8651,20.6148 L38.8651,3.0168 C38.8651,2.2738 39.4671,1.6718 40.2091,1.6718 C40.9521,1.6718 41.5541,2.2738 41.5541,3.0168 L41.5541,20.6148 C41.5541,21.3578 40.9521,21.9598 40.2091,21.9598" id="Fill-8" fill="#000000"></path>
                    <path d="M40.2091,71.7171 C39.4671,71.7171 38.8651,71.1151 38.8651,70.3731 L38.8651,52.7741 C38.8651,52.0311 39.4671,51.4291 40.2091,51.4291 C40.9521,51.4291 41.5541,52.0311 41.5541,52.7741 L41.5541,70.3731 C41.5541,71.1151 40.9521,71.7171 40.2091,71.7171" id="Fill-10" fill="#000000"></path>
                    <path d="M56.3302,36.6947 C56.3302,45.7137 49.0182,53.0257 40.0002,53.0257 C30.9802,53.0257 23.6702,45.7137 23.6702,36.6947 C23.6702,27.6757 30.9802,20.3637 40.0002,20.3637 C49.0182,20.3637 56.3302,27.6757 56.3302,36.6947" id="Fill-12" fill="#000000"></path>
                    <path d="M53.7432,36.6947 C53.7432,44.2847 47.5902,50.4377 40.0002,50.4377 C32.4102,50.4377 26.2572,44.2847 26.2572,36.6947 C26.2572,29.1047 32.4102,22.9517 40.0002,22.9517 C47.5902,22.9517 53.7432,29.1047 53.7432,36.6947" id="Fill-14" fill="#78BE21"></path>
                    <path d="M48.3839,36.6947 C48.3839,41.3247 44.6299,45.0787 39.9999,45.0787 C35.3699,45.0787 31.6159,41.3247 31.6159,36.6947 C31.6159,32.0647 35.3699,28.3107 39.9999,28.3107 C44.6299,28.3107 48.3839,32.0647 48.3839,36.6947" id="Fill-16" fill="#78BE21"></path>
                    <path d="M41.4727,14.034 C41.4727,16.994 40.8137,19.393 39.9997,19.393 C39.1867,19.393 38.5277,16.994 38.5277,14.034 C38.5277,11.075 39.1867,8.675 39.9997,8.675 C40.8137,8.675 41.4727,11.075 41.4727,14.034" id="Fill-18" fill="#F8DA2A"></path>
                    <path d="M34.3985,14.6883 C35.3125,17.5033 35.4275,19.9893 34.6535,20.2403 C33.8795,20.4913 32.5115,18.4133 31.5965,15.5983 C30.6825,12.7833 30.5675,10.2973 31.3415,10.0463 C32.1155,9.7943 33.4835,11.8733 34.3985,14.6883" id="Fill-20" fill="#F8DA2A"></path>
                    <path d="M27.8721,17.4964 C29.6121,19.8914 30.4881,22.2194 29.8311,22.6984 C29.1731,23.1764 27.2281,21.6224 25.4891,19.2274 C23.7491,16.8324 22.8721,14.5044 23.5301,14.0264 C24.1881,13.5474 26.1331,15.1014 27.8721,17.4964" id="Fill-22" fill="#F8DA2A"></path>
                    <path d="M22.5333,22.1834 C24.9283,23.9234 26.4813,25.8674 26.0033,26.5254 C25.5253,27.1834 23.1963,26.3064 20.8023,24.5664 C18.4073,22.8274 16.8533,20.8834 17.3313,20.2254 C17.8093,19.5664 20.1383,20.4434 22.5333,22.1834" id="Fill-24" fill="#F8DA2A"></path>
                    <path d="M18.9044,28.2913 C21.7184,29.2063 23.7974,30.5743 23.5464,31.3483 C23.2944,32.1223 20.8084,32.0073 17.9934,31.0933 C15.1784,30.1783 13.1004,28.8103 13.3514,28.0363 C13.6024,27.2623 16.0894,27.3763 18.9044,28.2913" id="Fill-26" fill="#F8DA2A"></path>
                    <path d="M17.3399,35.222 C20.2999,35.222 22.6989,35.881 22.6989,36.695 C22.6989,37.508 20.2999,38.167 17.3399,38.167 C14.3799,38.167 11.9809,37.508 11.9809,36.695 C11.9809,35.881 14.3799,35.222 17.3399,35.222" id="Fill-28" fill="#F8DA2A"></path>
                    <path d="M17.9932,42.2962 C20.8082,41.3812 23.2942,41.2672 23.5462,42.0412 C23.7972,42.8142 21.7192,44.1832 18.9042,45.0982 C16.0892,46.0122 13.6022,46.1272 13.3512,45.3532 C13.1002,44.5792 15.1792,43.2112 17.9932,42.2962" id="Fill-30" fill="#F8DA2A"></path>
                    <path d="M20.8018,48.8226 C23.1968,47.0826 25.5258,46.2056 26.0028,46.8636 C26.4818,47.5216 24.9278,49.4656 22.5328,51.2056 C20.1388,52.9456 17.8098,53.8226 17.3308,53.1646 C16.8538,52.5066 18.4068,50.5626 20.8018,48.8226" id="Fill-32" fill="#F8DA2A"></path>
                    <path d="M25.4893,54.1615 C27.2283,51.7665 29.1733,50.2135 29.8313,50.6915 C30.4883,51.1695 29.6123,53.4985 27.8723,55.8925 C26.1333,58.2875 24.1883,59.8415 23.5303,59.3635 C22.8723,58.8855 23.7493,56.5565 25.4893,54.1615" id="Fill-34" fill="#F8DA2A"></path>
                    <path d="M31.5968,57.7909 C32.5118,54.9759 33.8798,52.8969 34.6538,53.1489 C35.4278,53.3999 35.3128,55.8859 34.3988,58.7009 C33.4838,61.5159 32.1158,63.5949 31.3418,63.3429 C30.5678,63.0919 30.6828,60.6059 31.5968,57.7909" id="Fill-36" fill="#F8DA2A"></path>
                    <path d="M38.5274,59.3548 C38.5274,56.3948 39.1864,53.9958 40.0004,53.9958 C40.8134,53.9958 41.4724,56.3948 41.4724,59.3548 C41.4724,62.3148 40.8134,64.7138 40.0004,64.7138 C39.1864,64.7138 38.5274,62.3148 38.5274,59.3548" id="Fill-38" fill="#F8DA2A"></path>
                    <path d="M45.6016,58.701 C44.6866,55.886 44.5726,53.4 45.3466,53.149 C46.1206,52.897 47.4886,54.976 48.4036,57.791 C49.3176,60.606 49.4326,63.092 48.6586,63.343 C47.8846,63.595 46.5166,61.516 45.6016,58.701" id="Fill-40" fill="#F8DA2A"></path>
                    <path d="M52.128,55.8929 C50.388,53.4979 49.511,51.1689 50.169,50.6909 C50.827,50.2129 52.772,51.7669 54.511,54.1619 C56.251,56.5559 57.128,58.8849 56.47,59.3629 C55.812,59.8409 53.867,58.2879 52.128,55.8929" id="Fill-42" fill="#F8DA2A"></path>
                    <path d="M57.4669,51.2054 C55.0719,49.4654 53.5189,47.5214 53.9969,46.8634 C54.4749,46.2054 56.8039,47.0824 59.1979,48.8224 C61.5929,50.5624 63.1469,52.5064 62.6689,53.1644 C62.1909,53.8224 59.8619,52.9454 57.4669,51.2054" id="Fill-44" fill="#F8DA2A"></path>
                    <path d="M61.0958,45.098 C58.2818,44.183 56.2028,42.814 56.4538,42.041 C56.7048,41.267 59.1918,41.382 62.0068,42.296 C64.8218,43.211 66.8998,44.579 66.6488,45.353 C66.3978,46.127 63.9108,46.013 61.0958,45.098" id="Fill-46" fill="#F8DA2A"></path>
                    <path d="M62.6602,38.1673 C59.7002,38.1673 57.3012,37.5083 57.3012,36.6943 C57.3012,35.8813 59.7002,35.2223 62.6602,35.2223 C65.6202,35.2223 68.0192,35.8813 68.0192,36.6943 C68.0192,37.5083 65.6202,38.1673 62.6602,38.1673" id="Fill-48" fill="#F8DA2A"></path>
                    <path d="M62.0069,31.0931 C59.1919,32.0081 56.7049,32.1221 56.4539,31.3481 C56.2029,30.5741 58.2809,29.2061 61.0959,28.2911 C63.9109,27.3771 66.3979,27.2621 66.6489,28.0361 C66.8999,28.8101 64.8209,30.1781 62.0069,31.0931" id="Fill-50" fill="#F8DA2A"></path>
                    <path d="M59.1983,24.5667 C56.8033,26.3067 54.4743,27.1837 53.9973,26.5247 C53.5183,25.8677 55.0723,23.9227 57.4673,22.1837 C59.8613,20.4437 62.1903,19.5667 62.6693,20.2247 C63.1463,20.8827 61.5933,22.8267 59.1983,24.5667" id="Fill-52" fill="#F8DA2A"></path>
                    <path d="M54.5108,19.2279 C52.7718,21.6229 50.8268,23.1759 50.1688,22.6979 C49.5108,22.2199 50.3878,19.8909 52.1278,17.4969 C53.8668,15.1019 55.8118,13.5479 56.4698,14.0259 C57.1278,14.5039 56.2508,16.8329 54.5108,19.2279" id="Fill-54" fill="#F8DA2A"></path>
                    <path d="M48.4034,15.5985 C47.4884,18.4135 46.1204,20.4915 45.3464,20.2405 C44.5724,19.9895 44.6864,17.5035 45.6014,14.6885 C46.5164,11.8725 47.8844,9.7945 48.6584,10.0465 C49.4324,10.2975 49.3174,12.7835 48.4034,15.5985" id="Fill-56" fill="#F8DA2A"></path>
                </g>
            </g>
        </g>
    </g>
</svg>